solid OpenSCAD_Model
  facet normal 1 -0 0
    outer loop
      vertex 12.7 -7.33235 1.5
      vertex 12.7 7.33235 -1.5
      vertex 12.7 7.33235 1.5
    endloop
  endfacet
  facet normal 1 0 0
    outer loop
      vertex 12.7 7.33235 -1.5
      vertex 12.7 -7.33235 1.5
      vertex 12.7 -7.33235 -1.5
    endloop
  endfacet
  facet normal 0 0 1
    outer loop
      vertex 0 14.6647 1.5
      vertex 12.7 -7.33235 1.5
      vertex 12.7 7.33235 1.5
    endloop
  endfacet
  facet normal 0 0 1
    outer loop
      vertex 0 14.6647 1.5
      vertex 0 -14.6647 1.5
      vertex 12.7 -7.33235 1.5
    endloop
  endfacet
  facet normal -0 0 1
    outer loop
      vertex -12.7 7.33235 1.5
      vertex 0 -14.6647 1.5
      vertex 0 14.6647 1.5
    endloop
  endfacet
  facet normal 0 0 1
    outer loop
      vertex 0 -14.6647 1.5
      vertex -12.7 7.33235 1.5
      vertex -12.7 -7.33235 1.5
    endloop
  endfacet
  facet normal 0 0 -1
    outer loop
      vertex 0 -14.6647 -1.5
      vertex 12.7 7.33235 -1.5
      vertex 12.7 -7.33235 -1.5
    endloop
  endfacet
  facet normal 0 0 -1
    outer loop
      vertex 0 -14.6647 -1.5
      vertex 0 14.6647 -1.5
      vertex 12.7 7.33235 -1.5
    endloop
  endfacet
  facet normal 0 0 -1
    outer loop
      vertex -12.7 -7.33235 -1.5
      vertex 0 14.6647 -1.5
      vertex 0 -14.6647 -1.5
    endloop
  endfacet
  facet normal 0 0 -1
    outer loop
      vertex 0 14.6647 -1.5
      vertex -12.7 -7.33235 -1.5
      vertex -12.7 7.33235 -1.5
    endloop
  endfacet
  facet normal -1 0 0
    outer loop
      vertex -12.7 -7.33235 -1.5
      vertex -12.7 7.33235 1.5
      vertex -12.7 7.33235 -1.5
    endloop
  endfacet
  facet normal -1 -0 0
    outer loop
      vertex -12.7 7.33235 1.5
      vertex -12.7 -7.33235 -1.5
      vertex -12.7 -7.33235 1.5
    endloop
  endfacet
  facet normal 0.5 0.866025 -0
    outer loop
      vertex 12.7 7.33235 -1.5
      vertex 0 14.6647 1.5
      vertex 12.7 7.33235 1.5
    endloop
  endfacet
  facet normal 0.5 0.866025 0
    outer loop
      vertex 0 14.6647 1.5
      vertex 12.7 7.33235 -1.5
      vertex 0 14.6647 -1.5
    endloop
  endfacet
  facet normal -0.5 -0.866025 0
    outer loop
      vertex -12.7 -7.33235 -1.5
      vertex 0 -14.6647 1.5
      vertex -12.7 -7.33235 1.5
    endloop
  endfacet
  facet normal -0.5 -0.866025 -0
    outer loop
      vertex 0 -14.6647 1.5
      vertex -12.7 -7.33235 -1.5
      vertex 0 -14.6647 -1.5
    endloop
  endfacet
  facet normal 0.5 -0.866025 0
    outer loop
      vertex 0 -14.6647 -1.5
      vertex 12.7 -7.33235 1.5
      vertex 0 -14.6647 1.5
    endloop
  endfacet
  facet normal 0.5 -0.866025 0
    outer loop
      vertex 12.7 -7.33235 1.5
      vertex 0 -14.6647 -1.5
      vertex 12.7 -7.33235 -1.5
    endloop
  endfacet
  facet normal -0.5 0.866025 0
    outer loop
      vertex 0 14.6647 -1.5
      vertex -12.7 7.33235 1.5
      vertex 0 14.6647 1.5
    endloop
  endfacet
  facet normal -0.5 0.866025 0
    outer loop
      vertex -12.7 7.33235 1.5
      vertex 0 14.6647 -1.5
      vertex -12.7 7.33235 -1.5
    endloop
  endfacet
endsolid OpenSCAD_Model
