solid OpenSCAD_Model
  facet normal 0 0 -1
    outer loop
      vertex 28.3452 40.3536 0
      vertex 19.5901 50.3876 0
      vertex 21.6276 51.1586 0
    endloop
  endfacet
  facet normal 0 0 -1
    outer loop
      vertex 9.88438 33.4817 0
      vertex 9.80871 24.8264 0
      vertex 5.80885 24.8614 0
    endloop
  endfacet
  facet normal 0 0 -1
    outer loop
      vertex 5.80885 24.8614 0
      vertex 5.65749 7.55078 0
      vertex 0 1 0
    endloop
  endfacet
  facet normal 0 0 -1
    outer loop
      vertex 5.88454 33.5167 0
      vertex 5.80885 24.8614 0
      vertex 0 1 0
    endloop
  endfacet
  facet normal 0 0 -1
    outer loop
      vertex 34.0963 57.6153 0
      vertex 34.172 66.2706 0
      vertex 38.1718 66.2356 0
    endloop
  endfacet
  facet normal 0 -0 -1
    outer loop
      vertex 17.1456 40.4516 0
      vertex 28.3102 36.3538 0
      vertex 17.1106 36.4517 0
    endloop
  endfacet
  facet normal 0 0 -1
    outer loop
      vertex 17.1456 40.4516 0
      vertex 9.94587 40.5145 0
      vertex 10.0001 46.7143 0
    endloop
  endfacet
  facet normal 0 0 -1
    outer loop
      vertex 28.3452 40.3536 0
      vertex 23.5761 53.4377 0
      vertex 33.945 40.3047 0
    endloop
  endfacet
  facet normal 0 0 -1
    outer loop
      vertex 6.00024 46.7493 0
      vertex 5.88454 33.5167 0
      vertex 0 1 0
    endloop
  endfacet
  facet normal 0 -0 -1
    outer loop
      vertex 5.88454 33.5167 0
      vertex 9.88438 33.4817 0
      vertex 5.80885 24.8614 0
    endloop
  endfacet
  facet normal 0 0 -1
    outer loop
      vertex -3.67443e-06 126.805 0
      vertex 6.00024 46.7493 0
      vertex 0 1 0
    endloop
  endfacet
  facet normal 0 0 -1
    outer loop
      vertex 17.1456 40.4516 0
      vertex 28.3452 40.3536 0
      vertex 28.3102 36.3538 0
    endloop
  endfacet
  facet normal 0 0 -1
    outer loop
      vertex 33.945 40.3047 0
      vertex 23.5761 53.4377 0
      vertex 34.0963 57.6153 0
    endloop
  endfacet
  facet normal 0 0 -1
    outer loop
      vertex 38.0962 57.5803 0
      vertex 34.0963 57.6153 0
      vertex 38.1718 66.2356 0
    endloop
  endfacet
  facet normal -0 0 -1
    outer loop
      vertex 34.2877 79.5032 0
      vertex 28.9104 74.7655 0
      vertex 29.3364 81.9799 0
    endloop
  endfacet
  facet normal 0 0 -1
    outer loop
      vertex 62.2324 73.0586 0
      vertex 48.8775 82.5895 0
      vertex 50.9151 83.1035 0
    endloop
  endfacet
  facet normal 0 -0 -1
    outer loop
      vertex 40.3905 94.3495 0
      vertex 41.5947 90.3716 0
      vertex 29.3364 89.3554 0
    endloop
  endfacet
  facet normal 0 0 -1
    outer loop
      vertex 10.0001 46.7143 0
      vertex 17.5525 51.1586 0
      vertex 17.1456 40.4516 0
    endloop
  endfacet
  facet normal 0 -0 -1
    outer loop
      vertex 62.4595 99.0245 0
      vertex 66.4593 98.9895 0
      vertex 62.3838 90.3692 0
    endloop
  endfacet
  facet normal 0 0 -1
    outer loop
      vertex 10.0001 46.7143 0
      vertex 6.00024 46.7493 0
      vertex 13.8298 57.1255 0
    endloop
  endfacet
  facet normal 0 0 -1
    outer loop
      vertex 38.2333 73.2684 0
      vertex 48.8775 82.5895 0
      vertex 62.2324 73.0586 0
    endloop
  endfacet
  facet normal 0 0 -1
    outer loop
      vertex 26.8729 109.275 0
      vertex 25.3504 114.21 0
      vertex 39.5572 113.378 0
    endloop
  endfacet
  facet normal -0 0 -1
    outer loop
      vertex 94.7468 131.743 0
      vertex 90.6713 123.123 0
      vertex 90.7469 131.778 0
    endloop
  endfacet
  facet normal 0 0 -1
    outer loop
      vertex 62.3838 90.3692 0
      vertex 66.4593 98.9895 0
      vertex 66.3836 90.3342 0
    endloop
  endfacet
  facet normal 0 0 -1
    outer loop
      vertex 9.84376 89.3554 0
      vertex -3.67443e-06 126.805 0
      vertex 10.2697 96.5697 0
    endloop
  endfacet
  facet normal 0 0 -1
    outer loop
      vertex 25.3504 114.21 0
      vertex 23.5761 117.897 0
      vertex 40.3905 117.87 0
    endloop
  endfacet
  facet normal 0 0 -1
    outer loop
      vertex 52.8636 127.596 0
      vertex 68.8447 134.745 0
      vertex 68.4187 132.341 0
    endloop
  endfacet
  facet normal 0 -0 -1
    outer loop
      vertex 82.151 120.368 0
      vertex 90.5199 105.813 0
      vertex 80.2026 119.608 0
    endloop
  endfacet
  facet normal 0 0 -1
    outer loop
      vertex 94.6711 123.088 0
      vertex 90.6713 123.123 0
      vertex 94.7468 131.743 0
    endloop
  endfacet
  facet normal -0 0 -1
    outer loop
      vertex 90.6713 123.123 0
      vertex 83.9253 121.597 0
      vertex 85.4478 123.242 0
    endloop
  endfacet
  facet normal 0 0 -1
    outer loop
      vertex 94.8625 144.976 0
      vertex 90.8626 145.011 0
      vertex 111.234 162.263 0
    endloop
  endfacet
  facet normal 0 0 -1
    outer loop
      vertex 118.807 138.566 0
      vertex 94.8083 138.776 0
      vertex 94.8625 144.976 0
    endloop
  endfacet
  facet normal 0 0 -1
    outer loop
      vertex 78.165 119.351 0
      vertex 80.2026 119.608 0
      vertex 90.5199 105.813 0
    endloop
  endfacet
  facet normal 0 0 -1
    outer loop
      vertex 118.807 138.566 0
      vertex 94.8625 144.976 0
      vertex 111.234 162.263 0
    endloop
  endfacet
  facet normal -0 0 -1
    outer loop
      vertex 127.294 148.393 0
      vertex 118.807 138.566 0
      vertex 111.234 162.263 0
    endloop
  endfacet
  facet normal 0 0 -1
    outer loop
      vertex 26.8729 62.0607 0
      vertex 28.0771 68.0276 0
      vertex 34.172 66.2706 0
    endloop
  endfacet
  facet normal 0 0 -1
    outer loop
      vertex 28.3452 40.3536 0
      vertex 17.1456 40.4516 0
      vertex 19.5901 50.3876 0
    endloop
  endfacet
  facet normal 0 -0 -1
    outer loop
      vertex 17.5525 51.1586 0
      vertex 19.5901 50.3876 0
      vertex 17.1456 40.4516 0
    endloop
  endfacet
  facet normal 0 0 -1
    outer loop
      vertex 34.172 66.2706 0
      vertex 34.0963 57.6153 0
      vertex 26.8729 62.0607 0
    endloop
  endfacet
  facet normal 0 -0 -1
    outer loop
      vertex 15.6041 53.4377 0
      vertex 17.5525 51.1586 0
      vertex 10.0001 46.7143 0
    endloop
  endfacet
  facet normal 0 -0 -1
    outer loop
      vertex 13.8298 57.1255 0
      vertex 15.6041 53.4377 0
      vertex 10.0001 46.7143 0
    endloop
  endfacet
  facet normal -0 0 -1
    outer loop
      vertex 13.8298 57.1255 0
      vertex 6.00024 46.7493 0
      vertex 12.3073 62.0607 0
    endloop
  endfacet
  facet normal -0 0 -1
    outer loop
      vertex 12.3073 62.0607 0
      vertex 6.00024 46.7493 0
      vertex 11.103 68.0276 0
    endloop
  endfacet
  facet normal -0 0 -1
    outer loop
      vertex 11.103 68.0276 0
      vertex 6.00024 46.7493 0
      vertex 10.2697 74.7655 0
    endloop
  endfacet
  facet normal 0 -0 -1
    outer loop
      vertex 9.84376 81.9799 0
      vertex 10.2697 74.7655 0
      vertex 6.00024 46.7493 0
    endloop
  endfacet
  facet normal 0 0 -1
    outer loop
      vertex 34.2877 79.5032 0
      vertex 34.172 66.2706 0
      vertex 28.9104 74.7655 0
    endloop
  endfacet
  facet normal 0 0 -1
    outer loop
      vertex -3.67443e-06 126.805 0
      vertex 9.84376 81.9799 0
      vertex 6.00024 46.7493 0
    endloop
  endfacet
  facet normal 0 0 -1
    outer loop
      vertex -3.67443e-06 126.805 0
      vertex 9.84376 89.3554 0
      vertex 9.84376 81.9799 0
    endloop
  endfacet
  facet normal 0 0 -1
    outer loop
      vertex 38.2876 79.4682 0
      vertex 41.5947 90.3716 0
      vertex 43.1172 87.0815 0
    endloop
  endfacet
  facet normal 0 0 -1
    outer loop
      vertex 10.2697 96.5697 0
      vertex -3.67443e-06 126.805 0
      vertex 11.103 103.308 0
    endloop
  endfacet
  facet normal 0 0 -1
    outer loop
      vertex 11.103 103.308 0
      vertex -3.67443e-06 126.805 0
      vertex 12.3073 109.275 0
    endloop
  endfacet
  facet normal 0 0 -1
    outer loop
      vertex 12.3073 109.275 0
      vertex -3.67443e-06 126.805 0
      vertex 13.8298 114.21 0
    endloop
  endfacet
  facet normal 0 0 -1
    outer loop
      vertex 13.8298 114.21 0
      vertex -3.67443e-06 126.805 0
      vertex 15.6041 117.898 0
    endloop
  endfacet
  facet normal 0 0 -1
    outer loop
      vertex 41.5947 121.847 0
      vertex 23.5761 117.897 0
      vertex 21.6276 120.177 0
    endloop
  endfacet
  facet normal -0 0 -1
    outer loop
      vertex 17.5525 120.177 0
      vertex 15.6041 117.898 0
      vertex -3.67443e-06 126.805 0
    endloop
  endfacet
  facet normal 0 0 -1
    outer loop
      vertex 21.6276 120.177 0
      vertex 44.8915 127.596 0
      vertex 43.1172 125.138 0
    endloop
  endfacet
  facet normal -0 0 -1
    outer loop
      vertex 19.5901 120.948 0
      vertex 17.5525 120.177 0
      vertex -3.67443e-06 126.805 0
    endloop
  endfacet
  facet normal 0 0 -1
    outer loop
      vertex 23.5761 117.897 0
      vertex 41.5947 121.847 0
      vertex 40.3905 117.87 0
    endloop
  endfacet
  facet normal 0 0 -1
    outer loop
      vertex 28.0771 103.308 0
      vertex 39.1312 108.568 0
      vertex 39.1312 103.651 0
    endloop
  endfacet
  facet normal 0 0 -1
    outer loop
      vertex 28.9104 96.5697 0
      vertex 28.0771 103.308 0
      vertex 39.5572 98.8415 0
    endloop
  endfacet
  facet normal 0 0 -1
    outer loop
      vertex 66.575 112.222 0
      vertex 76.1275 119.608 0
      vertex 78.165 119.351 0
    endloop
  endfacet
  facet normal 0 0 -1
    outer loop
      vertex 38.2876 79.4682 0
      vertex 43.1172 87.0815 0
      vertex 44.8915 84.6229 0
    endloop
  endfacet
  facet normal 0 0 -1
    outer loop
      vertex 38.2333 73.2684 0
      vertex 46.84 83.1035 0
      vertex 48.8775 82.5895 0
    endloop
  endfacet
  facet normal 0 0 -1
    outer loop
      vertex 29.3364 89.3554 0
      vertex 34.2877 79.5032 0
      vertex 29.3364 81.9799 0
    endloop
  endfacet
  facet normal 0 0 -1
    outer loop
      vertex 28.0771 68.0276 0
      vertex 28.9104 74.7655 0
      vertex 34.172 66.2706 0
    endloop
  endfacet
  facet normal 0 -0 -1
    outer loop
      vertex 26.8729 62.0607 0
      vertex 34.0963 57.6153 0
      vertex 25.3504 57.1255 0
    endloop
  endfacet
  facet normal 0 -0 -1
    outer loop
      vertex 25.3504 57.1255 0
      vertex 34.0963 57.6153 0
      vertex 23.5761 53.4377 0
    endloop
  endfacet
  facet normal 0 -0 -1
    outer loop
      vertex 23.5761 53.4377 0
      vertex 28.3452 40.3536 0
      vertex 21.6276 51.1586 0
    endloop
  endfacet
  facet normal 0 0 -1
    outer loop
      vertex 62.2324 73.0586 0
      vertex 54.6378 87.0815 0
      vertex 62.3838 90.3692 0
    endloop
  endfacet
  facet normal 0 -0 -1
    outer loop
      vertex 58.1979 98.8415 0
      vertex 62.4595 99.0245 0
      vertex 57.3646 94.3495 0
    endloop
  endfacet
  facet normal 0 0 -1
    outer loop
      vertex 62.2324 73.0586 0
      vertex 50.9151 83.1035 0
      vertex 52.8636 84.623 0
    endloop
  endfacet
  facet normal 0 -0 -1
    outer loop
      vertex 58.6239 103.651 0
      vertex 62.4595 99.0245 0
      vertex 58.1979 98.8415 0
    endloop
  endfacet
  facet normal 0 0 -1
    outer loop
      vertex 38.2333 73.2684 0
      vertex 38.2876 79.4682 0
      vertex 46.84 83.1035 0
    endloop
  endfacet
  facet normal -0 0 -1
    outer loop
      vertex 46.84 83.1035 0
      vertex 38.2876 79.4682 0
      vertex 44.8915 84.6229 0
    endloop
  endfacet
  facet normal 0 0 -1
    outer loop
      vertex 34.2877 79.5032 0
      vertex 41.5947 90.3716 0
      vertex 38.2876 79.4682 0
    endloop
  endfacet
  facet normal 0 0 -1
    outer loop
      vertex 34.2877 79.5032 0
      vertex 29.3364 89.3554 0
      vertex 41.5947 90.3716 0
    endloop
  endfacet
  facet normal 0 0 -1
    outer loop
      vertex 58.6239 108.568 0
      vertex 58.1979 113.378 0
      vertex 62.5752 112.257 0
    endloop
  endfacet
  facet normal 0 0 -1
    outer loop
      vertex 29.3364 89.3554 0
      vertex 28.9104 96.5697 0
      vertex 40.3905 94.3495 0
    endloop
  endfacet
  facet normal 0 -0 -1
    outer loop
      vertex 39.5572 98.8415 0
      vertex 40.3905 94.3495 0
      vertex 28.9104 96.5697 0
    endloop
  endfacet
  facet normal 0 -0 -1
    outer loop
      vertex 39.1312 103.651 0
      vertex 39.5572 98.8415 0
      vertex 28.0771 103.308 0
    endloop
  endfacet
  facet normal -0 0 -1
    outer loop
      vertex 39.1312 108.568 0
      vertex 28.0771 103.308 0
      vertex 26.8729 109.275 0
    endloop
  endfacet
  facet normal 0 0 -1
    outer loop
      vertex 62.5752 112.257 0
      vertex 62.4595 99.0245 0
      vertex 58.6239 103.651 0
    endloop
  endfacet
  facet normal 0 0 -1
    outer loop
      vertex 39.5572 113.378 0
      vertex 39.1312 108.568 0
      vertex 26.8729 109.275 0
    endloop
  endfacet
  facet normal 0 0 -1
    outer loop
      vertex 62.5752 112.257 0
      vertex 58.6239 103.651 0
      vertex 58.6239 108.568 0
    endloop
  endfacet
  facet normal 0 0 -1
    outer loop
      vertex 40.3905 117.87 0
      vertex 39.5572 113.378 0
      vertex 25.3504 114.21 0
    endloop
  endfacet
  facet normal 0 0 -1
    outer loop
      vertex 57.3646 117.87 0
      vertex 62.5752 112.257 0
      vertex 58.1979 113.378 0
    endloop
  endfacet
  facet normal 0 0 -1
    outer loop
      vertex 21.6276 120.177 0
      vertex 43.1172 125.138 0
      vertex 41.5947 121.847 0
    endloop
  endfacet
  facet normal 0 0 -1
    outer loop
      vertex 19.5901 120.948 0
      vertex 44.8915 127.596 0
      vertex 21.6276 120.177 0
    endloop
  endfacet
  facet normal 0 0 -1
    outer loop
      vertex 19.5901 120.948 0
      vertex 46.84 129.116 0
      vertex 44.8915 127.596 0
    endloop
  endfacet
  facet normal 0 0 -1
    outer loop
      vertex 70.8822 138.98 0
      vertex 69.678 136.991 0
      vertex 48.8775 129.63 0
    endloop
  endfacet
  facet normal 0 0 -1
    outer loop
      vertex 48.8775 129.63 0
      vertex 72.4047 140.625 0
      vertex 70.8822 138.98 0
    endloop
  endfacet
  facet normal 0 0 -1
    outer loop
      vertex 46.84 129.116 0
      vertex 19.5901 120.948 0
      vertex -3.67443e-06 126.805 0
    endloop
  endfacet
  facet normal 0 0 -1
    outer loop
      vertex 50.9151 129.116 0
      vertex 48.8775 129.63 0
      vertex 69.678 136.991 0
    endloop
  endfacet
  facet normal -0 0 -1
    outer loop
      vertex 68.8447 127.477 0
      vertex 54.6378 125.138 0
      vertex 68.4187 129.882 0
    endloop
  endfacet
  facet normal 0 0 -1
    outer loop
      vertex 111.234 162.263 0
      vertex 78.165 142.871 0
      vertex 76.1275 142.614 0
    endloop
  endfacet
  facet normal 0 0 -1
    outer loop
      vertex 57.3646 117.87 0
      vertex 70.8822 123.242 0
      vertex 62.5752 112.257 0
    endloop
  endfacet
  facet normal -0 0 -1
    outer loop
      vertex 72.4047 121.597 0
      vertex 66.575 112.222 0
      vertex 70.8822 123.242 0
    endloop
  endfacet
  facet normal -0 0 -1
    outer loop
      vertex 76.1275 119.608 0
      vertex 66.575 112.222 0
      vertex 74.179 120.368 0
    endloop
  endfacet
  facet normal 0 0 -1
    outer loop
      vertex 70.8822 123.242 0
      vertex 66.575 112.222 0
      vertex 62.5752 112.257 0
    endloop
  endfacet
  facet normal 0 0 -1
    outer loop
      vertex 62.4595 99.0245 0
      vertex 62.3838 90.3692 0
      vertex 57.3646 94.3495 0
    endloop
  endfacet
  facet normal 0 -0 -1
    outer loop
      vertex 57.3646 94.3495 0
      vertex 62.3838 90.3692 0
      vertex 56.1604 90.3716 0
    endloop
  endfacet
  facet normal 0 -0 -1
    outer loop
      vertex 56.1604 90.3716 0
      vertex 62.3838 90.3692 0
      vertex 54.6378 87.0815 0
    endloop
  endfacet
  facet normal 0 -0 -1
    outer loop
      vertex 54.6378 87.0815 0
      vertex 62.2324 73.0586 0
      vertex 52.8636 84.623 0
    endloop
  endfacet
  facet normal 0 0 -1
    outer loop
      vertex 87.9113 129.882 0
      vertex 87.9113 132.341 0
      vertex 90.7469 131.778 0
    endloop
  endfacet
  facet normal 0 0 -1
    outer loop
      vertex 111.234 162.263 0
      vertex 90.8626 145.011 0
      vertex 78.165 142.871 0
    endloop
  endfacet
  facet normal 0 0 -1
    outer loop
      vertex 90.5199 105.813 0
      vertex 83.9253 121.597 0
      vertex 90.6713 123.123 0
    endloop
  endfacet
  facet normal 0 0 -1
    outer loop
      vertex 90.8626 145.011 0
      vertex 90.7469 131.778 0
      vertex 86.6521 136.991 0
    endloop
  endfacet
  facet normal 0 0 -1
    outer loop
      vertex 90.5199 105.813 0
      vertex 82.151 120.368 0
      vertex 83.9253 121.597 0
    endloop
  endfacet
  facet normal 0 -0 -1
    outer loop
      vertex 78.165 119.351 0
      vertex 90.5199 105.813 0
      vertex 66.5208 106.022 0
    endloop
  endfacet
  facet normal 0 -0 -1
    outer loop
      vertex 66.575 112.222 0
      vertex 78.165 119.351 0
      vertex 66.5208 106.022 0
    endloop
  endfacet
  facet normal -0 0 -1
    outer loop
      vertex 74.179 120.368 0
      vertex 66.575 112.222 0
      vertex 72.4047 121.597 0
    endloop
  endfacet
  facet normal 0 0 -1
    outer loop
      vertex 57.3646 117.87 0
      vertex 69.678 125.231 0
      vertex 70.8822 123.242 0
    endloop
  endfacet
  facet normal 0 0 -1
    outer loop
      vertex 57.3646 117.87 0
      vertex 56.1604 121.847 0
      vertex 69.678 125.231 0
    endloop
  endfacet
  facet normal -0 0 -1
    outer loop
      vertex 69.678 125.231 0
      vertex 56.1604 121.847 0
      vertex 68.8447 127.477 0
    endloop
  endfacet
  facet normal 0 0 -1
    outer loop
      vertex 68.8447 127.477 0
      vertex 56.1604 121.847 0
      vertex 54.6378 125.138 0
    endloop
  endfacet
  facet normal 0 0 -1
    outer loop
      vertex 68.4187 129.882 0
      vertex 54.6378 125.138 0
      vertex 52.8636 127.596 0
    endloop
  endfacet
  facet normal 0 -0 -1
    outer loop
      vertex 68.4187 132.341 0
      vertex 68.4187 129.882 0
      vertex 52.8636 127.596 0
    endloop
  endfacet
  facet normal 0 0 -1
    outer loop
      vertex 68.8447 134.745 0
      vertex 52.8636 127.596 0
      vertex 50.9151 129.116 0
    endloop
  endfacet
  facet normal 0 0 -1
    outer loop
      vertex 69.678 136.991 0
      vertex 68.8447 134.745 0
      vertex 50.9151 129.116 0
    endloop
  endfacet
  facet normal 0 0 -1
    outer loop
      vertex 46.84 129.116 0
      vertex 72.4047 140.625 0
      vertex 48.8775 129.63 0
    endloop
  endfacet
  facet normal 0 0 -1
    outer loop
      vertex 46.84 129.116 0
      vertex 74.179 141.855 0
      vertex 72.4047 140.625 0
    endloop
  endfacet
  facet normal -0 0 -1
    outer loop
      vertex 46.84 129.116 0
      vertex -3.67443e-06 126.805 0
      vertex 74.179 141.855 0
    endloop
  endfacet
  facet normal -0 0 -1
    outer loop
      vertex 74.179 141.855 0
      vertex -3.67443e-06 126.805 0
      vertex 111.234 162.263 0
    endloop
  endfacet
  facet normal 0 0 -1
    outer loop
      vertex 111.234 162.263 0
      vertex 76.1275 142.614 0
      vertex 74.179 141.855 0
    endloop
  endfacet
  facet normal 0 0 -1
    outer loop
      vertex 78.165 142.871 0
      vertex 90.8626 145.011 0
      vertex 80.2026 142.614 0
    endloop
  endfacet
  facet normal 0 0 -1
    outer loop
      vertex 80.2026 142.614 0
      vertex 90.8626 145.011 0
      vertex 82.151 141.855 0
    endloop
  endfacet
  facet normal 0 0 -1
    outer loop
      vertex 82.151 141.855 0
      vertex 90.8626 145.011 0
      vertex 83.9253 140.625 0
    endloop
  endfacet
  facet normal 0 0 -1
    outer loop
      vertex 83.9253 140.625 0
      vertex 90.8626 145.011 0
      vertex 85.4478 138.98 0
    endloop
  endfacet
  facet normal 0 0 -1
    outer loop
      vertex 85.4478 138.98 0
      vertex 90.8626 145.011 0
      vertex 86.6521 136.991 0
    endloop
  endfacet
  facet normal 0 0 -1
    outer loop
      vertex 86.6521 136.991 0
      vertex 90.7469 131.778 0
      vertex 87.4854 134.745 0
    endloop
  endfacet
  facet normal 0 0 -1
    outer loop
      vertex 87.4854 134.745 0
      vertex 90.7469 131.778 0
      vertex 87.9113 132.341 0
    endloop
  endfacet
  facet normal 0 0 -1
    outer loop
      vertex 90.7469 131.778 0
      vertex 87.4854 127.477 0
      vertex 87.9113 129.882 0
    endloop
  endfacet
  facet normal 0 0 -1
    outer loop
      vertex 90.7469 131.778 0
      vertex 90.6713 123.123 0
      vertex 87.4854 127.477 0
    endloop
  endfacet
  facet normal 0 -0 -1
    outer loop
      vertex 87.4854 127.477 0
      vertex 90.6713 123.123 0
      vertex 86.6521 125.231 0
    endloop
  endfacet
  facet normal 0 -0 -1
    outer loop
      vertex 86.6521 125.231 0
      vertex 90.6713 123.123 0
      vertex 85.4478 123.242 0
    endloop
  endfacet
  facet normal 0 0 1
    outer loop
      vertex 21.6276 51.1586 4
      vertex 19.5901 50.3876 4
      vertex 28.3452 40.3536 4
    endloop
  endfacet
  facet normal -0 0 1
    outer loop
      vertex 5.80885 24.8614 4
      vertex 9.80871 24.8264 4
      vertex 9.88438 33.4817 4
    endloop
  endfacet
  facet normal 0 0 1
    outer loop
      vertex 0 1 4
      vertex 5.65749 7.55078 4
      vertex 5.80885 24.8614 4
    endloop
  endfacet
  facet normal 0 0 1
    outer loop
      vertex 0 1 4
      vertex 5.80885 24.8614 4
      vertex 5.88454 33.5167 4
    endloop
  endfacet
  facet normal 0 0 1
    outer loop
      vertex 38.1718 66.2356 4
      vertex 34.172 66.2706 4
      vertex 34.0963 57.6153 4
    endloop
  endfacet
  facet normal -0 0 1
    outer loop
      vertex 17.1106 36.4517 4
      vertex 28.3102 36.3538 4
      vertex 17.1456 40.4516 4
    endloop
  endfacet
  facet normal 0 0 1
    outer loop
      vertex 10.0001 46.7143 4
      vertex 9.94587 40.5145 4
      vertex 17.1456 40.4516 4
    endloop
  endfacet
  facet normal 0 0 1
    outer loop
      vertex 33.945 40.3047 4
      vertex 23.5761 53.4377 4
      vertex 28.3452 40.3536 4
    endloop
  endfacet
  facet normal 0 0 1
    outer loop
      vertex 0 1 4
      vertex 5.88454 33.5167 4
      vertex 6.00024 46.7493 4
    endloop
  endfacet
  facet normal 0 0 1
    outer loop
      vertex 5.80885 24.8614 4
      vertex 9.88438 33.4817 4
      vertex 5.88454 33.5167 4
    endloop
  endfacet
  facet normal 0 -0 1
    outer loop
      vertex 0 1 4
      vertex 6.00024 46.7493 4
      vertex -3.67443e-06 126.805 4
    endloop
  endfacet
  facet normal 0 -0 1
    outer loop
      vertex 28.3102 36.3538 4
      vertex 28.3452 40.3536 4
      vertex 17.1456 40.4516 4
    endloop
  endfacet
  facet normal 0 0 1
    outer loop
      vertex 34.0963 57.6153 4
      vertex 23.5761 53.4377 4
      vertex 33.945 40.3047 4
    endloop
  endfacet
  facet normal 0 0 1
    outer loop
      vertex 38.1718 66.2356 4
      vertex 34.0963 57.6153 4
      vertex 38.0962 57.5803 4
    endloop
  endfacet
  facet normal 0 0 1
    outer loop
      vertex 29.3364 81.9799 4
      vertex 28.9104 74.7655 4
      vertex 34.2877 79.5032 4
    endloop
  endfacet
  facet normal 0 0 1
    outer loop
      vertex 50.9151 83.1035 4
      vertex 48.8775 82.5895 4
      vertex 62.2324 73.0586 4
    endloop
  endfacet
  facet normal 0 0 1
    outer loop
      vertex 29.3364 89.3554 4
      vertex 41.5947 90.3716 4
      vertex 40.3905 94.3495 4
    endloop
  endfacet
  facet normal 0 -0 1
    outer loop
      vertex 17.1456 40.4516 4
      vertex 17.5525 51.1586 4
      vertex 10.0001 46.7143 4
    endloop
  endfacet
  facet normal 0 0 1
    outer loop
      vertex 62.3838 90.3692 4
      vertex 66.4593 98.9895 4
      vertex 62.4595 99.0245 4
    endloop
  endfacet
  facet normal 0 0 1
    outer loop
      vertex 13.8298 57.1255 4
      vertex 6.00024 46.7493 4
      vertex 10.0001 46.7143 4
    endloop
  endfacet
  facet normal 0 0 1
    outer loop
      vertex 62.2324 73.0586 4
      vertex 48.8775 82.5895 4
      vertex 38.2333 73.2684 4
    endloop
  endfacet
  facet normal 0 0 1
    outer loop
      vertex 39.5572 113.378 4
      vertex 25.3504 114.21 4
      vertex 26.8729 109.275 4
    endloop
  endfacet
  facet normal 0 0 1
    outer loop
      vertex 90.7469 131.778 4
      vertex 90.6713 123.123 4
      vertex 94.7468 131.743 4
    endloop
  endfacet
  facet normal 0 -0 1
    outer loop
      vertex 66.3836 90.3342 4
      vertex 66.4593 98.9895 4
      vertex 62.3838 90.3692 4
    endloop
  endfacet
  facet normal 0 0 1
    outer loop
      vertex 10.2697 96.5697 4
      vertex -3.67443e-06 126.805 4
      vertex 9.84376 89.3554 4
    endloop
  endfacet
  facet normal 0 0 1
    outer loop
      vertex 40.3905 117.87 4
      vertex 23.5761 117.897 4
      vertex 25.3504 114.21 4
    endloop
  endfacet
  facet normal 0 -0 1
    outer loop
      vertex 68.4187 132.341 4
      vertex 68.8447 134.745 4
      vertex 52.8636 127.596 4
    endloop
  endfacet
  facet normal -0 0 1
    outer loop
      vertex 80.2026 119.608 4
      vertex 90.5199 105.813 4
      vertex 82.151 120.368 4
    endloop
  endfacet
  facet normal 0 0 1
    outer loop
      vertex 94.7468 131.743 4
      vertex 90.6713 123.123 4
      vertex 94.6711 123.088 4
    endloop
  endfacet
  facet normal 0 0 1
    outer loop
      vertex 85.4478 123.242 4
      vertex 83.9253 121.597 4
      vertex 90.6713 123.123 4
    endloop
  endfacet
  facet normal 0 0 1
    outer loop
      vertex 111.234 162.263 4
      vertex 90.8626 145.011 4
      vertex 94.8625 144.976 4
    endloop
  endfacet
  facet normal 0 0 1
    outer loop
      vertex 94.8625 144.976 4
      vertex 94.8083 138.776 4
      vertex 118.807 138.566 4
    endloop
  endfacet
  facet normal 0 0 1
    outer loop
      vertex 90.5199 105.813 4
      vertex 80.2026 119.608 4
      vertex 78.165 119.351 4
    endloop
  endfacet
  facet normal 0 0 1
    outer loop
      vertex 111.234 162.263 4
      vertex 94.8625 144.976 4
      vertex 118.807 138.566 4
    endloop
  endfacet
  facet normal 0 0 1
    outer loop
      vertex 111.234 162.263 4
      vertex 118.807 138.566 4
      vertex 127.294 148.393 4
    endloop
  endfacet
  facet normal 0 0 1
    outer loop
      vertex 34.172 66.2706 4
      vertex 28.0771 68.0276 4
      vertex 26.8729 62.0607 4
    endloop
  endfacet
  facet normal 0 0 1
    outer loop
      vertex 19.5901 50.3876 4
      vertex 17.1456 40.4516 4
      vertex 28.3452 40.3536 4
    endloop
  endfacet
  facet normal 0 0 1
    outer loop
      vertex 17.1456 40.4516 4
      vertex 19.5901 50.3876 4
      vertex 17.5525 51.1586 4
    endloop
  endfacet
  facet normal -0 0 1
    outer loop
      vertex 26.8729 62.0607 4
      vertex 34.0963 57.6153 4
      vertex 34.172 66.2706 4
    endloop
  endfacet
  facet normal 0 0 1
    outer loop
      vertex 10.0001 46.7143 4
      vertex 17.5525 51.1586 4
      vertex 15.6041 53.4377 4
    endloop
  endfacet
  facet normal 0 0 1
    outer loop
      vertex 10.0001 46.7143 4
      vertex 15.6041 53.4377 4
      vertex 13.8298 57.1255 4
    endloop
  endfacet
  facet normal 0 0 1
    outer loop
      vertex 12.3073 62.0607 4
      vertex 6.00024 46.7493 4
      vertex 13.8298 57.1255 4
    endloop
  endfacet
  facet normal 0 0 1
    outer loop
      vertex 11.103 68.0276 4
      vertex 6.00024 46.7493 4
      vertex 12.3073 62.0607 4
    endloop
  endfacet
  facet normal 0 0 1
    outer loop
      vertex 10.2697 74.7655 4
      vertex 6.00024 46.7493 4
      vertex 11.103 68.0276 4
    endloop
  endfacet
  facet normal 0 0 1
    outer loop
      vertex 6.00024 46.7493 4
      vertex 10.2697 74.7655 4
      vertex 9.84376 81.9799 4
    endloop
  endfacet
  facet normal -0 0 1
    outer loop
      vertex 28.9104 74.7655 4
      vertex 34.172 66.2706 4
      vertex 34.2877 79.5032 4
    endloop
  endfacet
  facet normal 0 -0 1
    outer loop
      vertex 6.00024 46.7493 4
      vertex 9.84376 81.9799 4
      vertex -3.67443e-06 126.805 4
    endloop
  endfacet
  facet normal 0 -0 1
    outer loop
      vertex 9.84376 81.9799 4
      vertex 9.84376 89.3554 4
      vertex -3.67443e-06 126.805 4
    endloop
  endfacet
  facet normal 0 0 1
    outer loop
      vertex 43.1172 87.0815 4
      vertex 41.5947 90.3716 4
      vertex 38.2876 79.4682 4
    endloop
  endfacet
  facet normal 0 0 1
    outer loop
      vertex 11.103 103.308 4
      vertex -3.67443e-06 126.805 4
      vertex 10.2697 96.5697 4
    endloop
  endfacet
  facet normal 0 0 1
    outer loop
      vertex 12.3073 109.275 4
      vertex -3.67443e-06 126.805 4
      vertex 11.103 103.308 4
    endloop
  endfacet
  facet normal 0 0 1
    outer loop
      vertex 13.8298 114.21 4
      vertex -3.67443e-06 126.805 4
      vertex 12.3073 109.275 4
    endloop
  endfacet
  facet normal 0 0 1
    outer loop
      vertex 15.6041 117.898 4
      vertex -3.67443e-06 126.805 4
      vertex 13.8298 114.21 4
    endloop
  endfacet
  facet normal -0 0 1
    outer loop
      vertex 21.6276 120.177 4
      vertex 23.5761 117.897 4
      vertex 41.5947 121.847 4
    endloop
  endfacet
  facet normal 0 0 1
    outer loop
      vertex -3.67443e-06 126.805 4
      vertex 15.6041 117.898 4
      vertex 17.5525 120.177 4
    endloop
  endfacet
  facet normal 0 -0 1
    outer loop
      vertex 43.1172 125.138 4
      vertex 44.8915 127.596 4
      vertex 21.6276 120.177 4
    endloop
  endfacet
  facet normal 0 0 1
    outer loop
      vertex -3.67443e-06 126.805 4
      vertex 17.5525 120.177 4
      vertex 19.5901 120.948 4
    endloop
  endfacet
  facet normal 0 -0 1
    outer loop
      vertex 40.3905 117.87 4
      vertex 41.5947 121.847 4
      vertex 23.5761 117.897 4
    endloop
  endfacet
  facet normal 0 -0 1
    outer loop
      vertex 39.1312 103.651 4
      vertex 39.1312 108.568 4
      vertex 28.0771 103.308 4
    endloop
  endfacet
  facet normal 0 0 1
    outer loop
      vertex 39.5572 98.8415 4
      vertex 28.0771 103.308 4
      vertex 28.9104 96.5697 4
    endloop
  endfacet
  facet normal 0 0 1
    outer loop
      vertex 78.165 119.351 4
      vertex 76.1275 119.608 4
      vertex 66.575 112.222 4
    endloop
  endfacet
  facet normal 0 0 1
    outer loop
      vertex 44.8915 84.6229 4
      vertex 43.1172 87.0815 4
      vertex 38.2876 79.4682 4
    endloop
  endfacet
  facet normal 0 0 1
    outer loop
      vertex 48.8775 82.5895 4
      vertex 46.84 83.1035 4
      vertex 38.2333 73.2684 4
    endloop
  endfacet
  facet normal -0 0 1
    outer loop
      vertex 29.3364 81.9799 4
      vertex 34.2877 79.5032 4
      vertex 29.3364 89.3554 4
    endloop
  endfacet
  facet normal 0 0 1
    outer loop
      vertex 34.172 66.2706 4
      vertex 28.9104 74.7655 4
      vertex 28.0771 68.0276 4
    endloop
  endfacet
  facet normal 0 0 1
    outer loop
      vertex 25.3504 57.1255 4
      vertex 34.0963 57.6153 4
      vertex 26.8729 62.0607 4
    endloop
  endfacet
  facet normal 0 0 1
    outer loop
      vertex 23.5761 53.4377 4
      vertex 34.0963 57.6153 4
      vertex 25.3504 57.1255 4
    endloop
  endfacet
  facet normal -0 0 1
    outer loop
      vertex 21.6276 51.1586 4
      vertex 28.3452 40.3536 4
      vertex 23.5761 53.4377 4
    endloop
  endfacet
  facet normal 0 0 1
    outer loop
      vertex 62.3838 90.3692 4
      vertex 54.6378 87.0815 4
      vertex 62.2324 73.0586 4
    endloop
  endfacet
  facet normal 0 0 1
    outer loop
      vertex 57.3646 94.3495 4
      vertex 62.4595 99.0245 4
      vertex 58.1979 98.8415 4
    endloop
  endfacet
  facet normal 0 0 1
    outer loop
      vertex 52.8636 84.623 4
      vertex 50.9151 83.1035 4
      vertex 62.2324 73.0586 4
    endloop
  endfacet
  facet normal 0 0 1
    outer loop
      vertex 58.1979 98.8415 4
      vertex 62.4595 99.0245 4
      vertex 58.6239 103.651 4
    endloop
  endfacet
  facet normal 0 0 1
    outer loop
      vertex 46.84 83.1035 4
      vertex 38.2876 79.4682 4
      vertex 38.2333 73.2684 4
    endloop
  endfacet
  facet normal 0 0 1
    outer loop
      vertex 44.8915 84.6229 4
      vertex 38.2876 79.4682 4
      vertex 46.84 83.1035 4
    endloop
  endfacet
  facet normal 0 -0 1
    outer loop
      vertex 38.2876 79.4682 4
      vertex 41.5947 90.3716 4
      vertex 34.2877 79.5032 4
    endloop
  endfacet
  facet normal 0 0 1
    outer loop
      vertex 41.5947 90.3716 4
      vertex 29.3364 89.3554 4
      vertex 34.2877 79.5032 4
    endloop
  endfacet
  facet normal 0 0 1
    outer loop
      vertex 62.5752 112.257 4
      vertex 58.1979 113.378 4
      vertex 58.6239 108.568 4
    endloop
  endfacet
  facet normal 0 0 1
    outer loop
      vertex 40.3905 94.3495 4
      vertex 28.9104 96.5697 4
      vertex 29.3364 89.3554 4
    endloop
  endfacet
  facet normal -0 0 1
    outer loop
      vertex 28.9104 96.5697 4
      vertex 40.3905 94.3495 4
      vertex 39.5572 98.8415 4
    endloop
  endfacet
  facet normal -0 0 1
    outer loop
      vertex 28.0771 103.308 4
      vertex 39.5572 98.8415 4
      vertex 39.1312 103.651 4
    endloop
  endfacet
  facet normal 0 0 1
    outer loop
      vertex 26.8729 109.275 4
      vertex 28.0771 103.308 4
      vertex 39.1312 108.568 4
    endloop
  endfacet
  facet normal -0 0 1
    outer loop
      vertex 58.6239 103.651 4
      vertex 62.4595 99.0245 4
      vertex 62.5752 112.257 4
    endloop
  endfacet
  facet normal -0 0 1
    outer loop
      vertex 26.8729 109.275 4
      vertex 39.1312 108.568 4
      vertex 39.5572 113.378 4
    endloop
  endfacet
  facet normal -0 0 1
    outer loop
      vertex 58.6239 108.568 4
      vertex 58.6239 103.651 4
      vertex 62.5752 112.257 4
    endloop
  endfacet
  facet normal -0 0 1
    outer loop
      vertex 25.3504 114.21 4
      vertex 39.5572 113.378 4
      vertex 40.3905 117.87 4
    endloop
  endfacet
  facet normal -0 -0 1
    outer loop
      vertex 58.1979 113.378 4
      vertex 62.5752 112.257 4
      vertex 57.3646 117.87 4
    endloop
  endfacet
  facet normal 0 -0 1
    outer loop
      vertex 41.5947 121.847 4
      vertex 43.1172 125.138 4
      vertex 21.6276 120.177 4
    endloop
  endfacet
  facet normal 0 -0 1
    outer loop
      vertex 21.6276 120.177 4
      vertex 44.8915 127.596 4
      vertex 19.5901 120.948 4
    endloop
  endfacet
  facet normal 0 -0 1
    outer loop
      vertex 44.8915 127.596 4
      vertex 46.84 129.116 4
      vertex 19.5901 120.948 4
    endloop
  endfacet
  facet normal 0 0 1
    outer loop
      vertex 48.8775 129.63 4
      vertex 69.678 136.991 4
      vertex 70.8822 138.98 4
    endloop
  endfacet
  facet normal 0 -0 1
    outer loop
      vertex 70.8822 138.98 4
      vertex 72.4047 140.625 4
      vertex 48.8775 129.63 4
    endloop
  endfacet
  facet normal -0 0 1
    outer loop
      vertex -3.67443e-06 126.805 4
      vertex 19.5901 120.948 4
      vertex 46.84 129.116 4
    endloop
  endfacet
  facet normal 0 0 1
    outer loop
      vertex 69.678 136.991 4
      vertex 48.8775 129.63 4
      vertex 50.9151 129.116 4
    endloop
  endfacet
  facet normal 0 0 1
    outer loop
      vertex 68.4187 129.882 4
      vertex 54.6378 125.138 4
      vertex 68.8447 127.477 4
    endloop
  endfacet
  facet normal 0 0 1
    outer loop
      vertex 76.1275 142.614 4
      vertex 78.165 142.871 4
      vertex 111.234 162.263 4
    endloop
  endfacet
  facet normal 0 -0 1
    outer loop
      vertex 62.5752 112.257 4
      vertex 70.8822 123.242 4
      vertex 57.3646 117.87 4
    endloop
  endfacet
  facet normal 0 0 1
    outer loop
      vertex 70.8822 123.242 4
      vertex 66.575 112.222 4
      vertex 72.4047 121.597 4
    endloop
  endfacet
  facet normal 0 0 1
    outer loop
      vertex 74.179 120.368 4
      vertex 66.575 112.222 4
      vertex 76.1275 119.608 4
    endloop
  endfacet
  facet normal -0 0 1
    outer loop
      vertex 62.5752 112.257 4
      vertex 66.575 112.222 4
      vertex 70.8822 123.242 4
    endloop
  endfacet
  facet normal -0 0 1
    outer loop
      vertex 57.3646 94.3495 4
      vertex 62.3838 90.3692 4
      vertex 62.4595 99.0245 4
    endloop
  endfacet
  facet normal -0 0 1
    outer loop
      vertex 56.1604 90.3716 4
      vertex 62.3838 90.3692 4
      vertex 57.3646 94.3495 4
    endloop
  endfacet
  facet normal 0 0 1
    outer loop
      vertex 54.6378 87.0815 4
      vertex 62.3838 90.3692 4
      vertex 56.1604 90.3716 4
    endloop
  endfacet
  facet normal -0 0 1
    outer loop
      vertex 52.8636 84.623 4
      vertex 62.2324 73.0586 4
      vertex 54.6378 87.0815 4
    endloop
  endfacet
  facet normal 0 0 1
    outer loop
      vertex 90.7469 131.778 4
      vertex 87.9113 132.341 4
      vertex 87.9113 129.882 4
    endloop
  endfacet
  facet normal 0 0 1
    outer loop
      vertex 78.165 142.871 4
      vertex 90.8626 145.011 4
      vertex 111.234 162.263 4
    endloop
  endfacet
  facet normal 0 0 1
    outer loop
      vertex 90.6713 123.123 4
      vertex 83.9253 121.597 4
      vertex 90.5199 105.813 4
    endloop
  endfacet
  facet normal -0 0 1
    outer loop
      vertex 86.6521 136.991 4
      vertex 90.7469 131.778 4
      vertex 90.8626 145.011 4
    endloop
  endfacet
  facet normal 0 0 1
    outer loop
      vertex 83.9253 121.597 4
      vertex 82.151 120.368 4
      vertex 90.5199 105.813 4
    endloop
  endfacet
  facet normal -0 0 1
    outer loop
      vertex 66.5208 106.022 4
      vertex 90.5199 105.813 4
      vertex 78.165 119.351 4
    endloop
  endfacet
  facet normal 0 0 1
    outer loop
      vertex 66.5208 106.022 4
      vertex 78.165 119.351 4
      vertex 66.575 112.222 4
    endloop
  endfacet
  facet normal 0 0 1
    outer loop
      vertex 72.4047 121.597 4
      vertex 66.575 112.222 4
      vertex 74.179 120.368 4
    endloop
  endfacet
  facet normal 0 0 1
    outer loop
      vertex 70.8822 123.242 4
      vertex 69.678 125.231 4
      vertex 57.3646 117.87 4
    endloop
  endfacet
  facet normal 0 0 1
    outer loop
      vertex 69.678 125.231 4
      vertex 56.1604 121.847 4
      vertex 57.3646 117.87 4
    endloop
  endfacet
  facet normal 0 0 1
    outer loop
      vertex 68.8447 127.477 4
      vertex 56.1604 121.847 4
      vertex 69.678 125.231 4
    endloop
  endfacet
  facet normal -0 0 1
    outer loop
      vertex 54.6378 125.138 4
      vertex 56.1604 121.847 4
      vertex 68.8447 127.477 4
    endloop
  endfacet
  facet normal -0 0 1
    outer loop
      vertex 52.8636 127.596 4
      vertex 54.6378 125.138 4
      vertex 68.4187 129.882 4
    endloop
  endfacet
  facet normal 0 0 1
    outer loop
      vertex 52.8636 127.596 4
      vertex 68.4187 129.882 4
      vertex 68.4187 132.341 4
    endloop
  endfacet
  facet normal -0 0 1
    outer loop
      vertex 50.9151 129.116 4
      vertex 52.8636 127.596 4
      vertex 68.8447 134.745 4
    endloop
  endfacet
  facet normal 0 0 1
    outer loop
      vertex 50.9151 129.116 4
      vertex 68.8447 134.745 4
      vertex 69.678 136.991 4
    endloop
  endfacet
  facet normal 0 -0 1
    outer loop
      vertex 48.8775 129.63 4
      vertex 72.4047 140.625 4
      vertex 46.84 129.116 4
    endloop
  endfacet
  facet normal 0 -0 1
    outer loop
      vertex 72.4047 140.625 4
      vertex 74.179 141.855 4
      vertex 46.84 129.116 4
    endloop
  endfacet
  facet normal 0 0 1
    outer loop
      vertex 74.179 141.855 4
      vertex -3.67443e-06 126.805 4
      vertex 46.84 129.116 4
    endloop
  endfacet
  facet normal 0 0 1
    outer loop
      vertex 111.234 162.263 4
      vertex -3.67443e-06 126.805 4
      vertex 74.179 141.855 4
    endloop
  endfacet
  facet normal 0 0 1
    outer loop
      vertex 74.179 141.855 4
      vertex 76.1275 142.614 4
      vertex 111.234 162.263 4
    endloop
  endfacet
  facet normal 0 -0 1
    outer loop
      vertex 80.2026 142.614 4
      vertex 90.8626 145.011 4
      vertex 78.165 142.871 4
    endloop
  endfacet
  facet normal 0 -0 1
    outer loop
      vertex 82.151 141.855 4
      vertex 90.8626 145.011 4
      vertex 80.2026 142.614 4
    endloop
  endfacet
  facet normal 0 -0 1
    outer loop
      vertex 83.9253 140.625 4
      vertex 90.8626 145.011 4
      vertex 82.151 141.855 4
    endloop
  endfacet
  facet normal 0 -0 1
    outer loop
      vertex 85.4478 138.98 4
      vertex 90.8626 145.011 4
      vertex 83.9253 140.625 4
    endloop
  endfacet
  facet normal 0 -0 1
    outer loop
      vertex 86.6521 136.991 4
      vertex 90.8626 145.011 4
      vertex 85.4478 138.98 4
    endloop
  endfacet
  facet normal -0 -0 1
    outer loop
      vertex 87.4854 134.745 4
      vertex 90.7469 131.778 4
      vertex 86.6521 136.991 4
    endloop
  endfacet
  facet normal -0 -0 1
    outer loop
      vertex 87.9113 132.341 4
      vertex 90.7469 131.778 4
      vertex 87.4854 134.745 4
    endloop
  endfacet
  facet normal -0 0 1
    outer loop
      vertex 87.9113 129.882 4
      vertex 87.4854 127.477 4
      vertex 90.7469 131.778 4
    endloop
  endfacet
  facet normal -0 0 1
    outer loop
      vertex 87.4854 127.477 4
      vertex 90.6713 123.123 4
      vertex 90.7469 131.778 4
    endloop
  endfacet
  facet normal -0 0 1
    outer loop
      vertex 86.6521 125.231 4
      vertex 90.6713 123.123 4
      vertex 87.4854 127.477 4
    endloop
  endfacet
  facet normal -0 0 1
    outer loop
      vertex 85.4478 123.242 4
      vertex 90.6713 123.123 4
      vertex 86.6521 125.231 4
    endloop
  endfacet
  facet normal -0.303712 0.952764 0
    outer loop
      vertex -3.67443e-06 126.805 0
      vertex 111.234 162.263 4
      vertex 111.234 162.263 0
    endloop
  endfacet
  facet normal -0.303712 0.952764 0
    outer loop
      vertex -3.67443e-06 126.805 0
      vertex -3.67443e-06 126.805 4
      vertex 111.234 162.263 4
    endloop
  endfacet
  facet normal -1 -2.92073e-08 0
    outer loop
      vertex 0 1 0
      vertex -3.67443e-06 126.805 4
      vertex -3.67443e-06 126.805 0
    endloop
  endfacet
  facet normal -1 -2.92073e-08 0
    outer loop
      vertex 0 1 0
      vertex 0 1 4
      vertex -3.67443e-06 126.805 4
    endloop
  endfacet
  facet normal 0.756823 -0.65362 0
    outer loop
      vertex 5.65749 7.55078 0
      vertex 0 1 4
      vertex 0 1 0
    endloop
  endfacet
  facet normal 0.756823 -0.65362 0
    outer loop
      vertex 5.65749 7.55078 0
      vertex 5.65749 7.55078 4
      vertex 0 1 4
    endloop
  endfacet
  facet normal 0.999962 -0.00874343 0
    outer loop
      vertex 5.80885 24.8614 0
      vertex 5.65749 7.55078 4
      vertex 5.65749 7.55078 0
    endloop
  endfacet
  facet normal 0.999962 -0.00874343 0
    outer loop
      vertex 5.80885 24.8614 0
      vertex 5.80885 24.8614 4
      vertex 5.65749 7.55078 4
    endloop
  endfacet
  facet normal -0.00874997 -0.999962 0
    outer loop
      vertex 9.80871 24.8264 0
      vertex 5.80885 24.8614 4
      vertex 5.80885 24.8614 0
    endloop
  endfacet
  facet normal -0.00874997 -0.999962 0
    outer loop
      vertex 9.80871 24.8264 0
      vertex 9.80871 24.8264 4
      vertex 5.80885 24.8614 4
    endloop
  endfacet
  facet normal 0.999962 -0.00874229 0
    outer loop
      vertex 9.88438 33.4817 0
      vertex 9.80871 24.8264 4
      vertex 9.80871 24.8264 0
    endloop
  endfacet
  facet normal 0.999962 -0.00874229 0
    outer loop
      vertex 9.88438 33.4817 0
      vertex 9.88438 33.4817 4
      vertex 9.80871 24.8264 4
    endloop
  endfacet
  facet normal 0.00875002 0.999962 0
    outer loop
      vertex 5.88454 33.5167 0
      vertex 9.88438 33.4817 4
      vertex 9.88438 33.4817 0
    endloop
  endfacet
  facet normal 0.00875002 0.999962 -0
    outer loop
      vertex 5.88454 33.5167 0
      vertex 5.88454 33.5167 4
      vertex 9.88438 33.4817 4
    endloop
  endfacet
  facet normal 0.999962 -0.00874322 0
    outer loop
      vertex 6.00024 46.7493 0
      vertex 5.88454 33.5167 4
      vertex 5.88454 33.5167 0
    endloop
  endfacet
  facet normal 0.999962 -0.00874322 0
    outer loop
      vertex 6.00024 46.7493 0
      vertex 6.00024 46.7493 4
      vertex 5.88454 33.5167 4
    endloop
  endfacet
  facet normal -0.00874997 -0.999962 0
    outer loop
      vertex 10.0001 46.7143 0
      vertex 6.00024 46.7493 4
      vertex 6.00024 46.7493 0
    endloop
  endfacet
  facet normal -0.00874997 -0.999962 0
    outer loop
      vertex 10.0001 46.7143 0
      vertex 10.0001 46.7143 4
      vertex 6.00024 46.7493 4
    endloop
  endfacet
  facet normal -0.999962 0.00874672 0
    outer loop
      vertex 9.94587 40.5145 0
      vertex 10.0001 46.7143 4
      vertex 10.0001 46.7143 0
    endloop
  endfacet
  facet normal -0.999962 0.00874672 0
    outer loop
      vertex 9.94587 40.5145 0
      vertex 9.94587 40.5145 4
      vertex 10.0001 46.7143 4
    endloop
  endfacet
  facet normal -0.00873611 -0.999962 0
    outer loop
      vertex 17.1456 40.4516 0
      vertex 9.94587 40.5145 4
      vertex 9.94587 40.5145 0
    endloop
  endfacet
  facet normal -0.00873611 -0.999962 0
    outer loop
      vertex 17.1456 40.4516 0
      vertex 17.1456 40.4516 4
      vertex 9.94587 40.5145 4
    endloop
  endfacet
  facet normal -0.999962 0.00874988 0
    outer loop
      vertex 17.1106 36.4517 0
      vertex 17.1456 40.4516 4
      vertex 17.1456 40.4516 0
    endloop
  endfacet
  facet normal -0.999962 0.00874988 0
    outer loop
      vertex 17.1106 36.4517 0
      vertex 17.1106 36.4517 4
      vertex 17.1456 40.4516 4
    endloop
  endfacet
  facet normal -0.00874105 -0.999962 0
    outer loop
      vertex 28.3102 36.3538 0
      vertex 17.1106 36.4517 4
      vertex 17.1106 36.4517 0
    endloop
  endfacet
  facet normal -0.00874105 -0.999962 0
    outer loop
      vertex 28.3102 36.3538 0
      vertex 28.3102 36.3538 4
      vertex 17.1106 36.4517 4
    endloop
  endfacet
  facet normal 0.999962 -0.0087501 0
    outer loop
      vertex 28.3452 40.3536 0
      vertex 28.3102 36.3538 4
      vertex 28.3102 36.3538 0
    endloop
  endfacet
  facet normal 0.999962 -0.0087501 0
    outer loop
      vertex 28.3452 40.3536 0
      vertex 28.3452 40.3536 4
      vertex 28.3102 36.3538 4
    endloop
  endfacet
  facet normal -0.00873212 -0.999962 0
    outer loop
      vertex 33.945 40.3047 0
      vertex 28.3452 40.3536 4
      vertex 28.3452 40.3536 0
    endloop
  endfacet
  facet normal -0.00873212 -0.999962 0
    outer loop
      vertex 33.945 40.3047 0
      vertex 33.945 40.3047 4
      vertex 28.3452 40.3536 4
    endloop
  endfacet
  facet normal 0.999962 -0.00873998 0
    outer loop
      vertex 34.0963 57.6153 0
      vertex 33.945 40.3047 4
      vertex 33.945 40.3047 0
    endloop
  endfacet
  facet normal 0.999962 -0.00873998 0
    outer loop
      vertex 34.0963 57.6153 0
      vertex 34.0963 57.6153 4
      vertex 33.945 40.3047 4
    endloop
  endfacet
  facet normal -0.00874988 -0.999962 0
    outer loop
      vertex 38.0962 57.5803 0
      vertex 34.0963 57.6153 4
      vertex 34.0963 57.6153 0
    endloop
  endfacet
  facet normal -0.00874988 -0.999962 0
    outer loop
      vertex 38.0962 57.5803 0
      vertex 38.0962 57.5803 4
      vertex 34.0963 57.6153 4
    endloop
  endfacet
  facet normal 0.999962 -0.0087342 0
    outer loop
      vertex 38.1718 66.2356 0
      vertex 38.0962 57.5803 4
      vertex 38.0962 57.5803 0
    endloop
  endfacet
  facet normal 0.999962 -0.0087342 0
    outer loop
      vertex 38.1718 66.2356 0
      vertex 38.1718 66.2356 4
      vertex 38.0962 57.5803 4
    endloop
  endfacet
  facet normal 0.0087501 0.999962 0
    outer loop
      vertex 34.172 66.2706 0
      vertex 38.1718 66.2356 4
      vertex 38.1718 66.2356 0
    endloop
  endfacet
  facet normal 0.0087501 0.999962 -0
    outer loop
      vertex 34.172 66.2706 0
      vertex 34.172 66.2706 4
      vertex 38.1718 66.2356 4
    endloop
  endfacet
  facet normal 0.999962 -0.00874322 0
    outer loop
      vertex 34.2877 79.5032 0
      vertex 34.172 66.2706 4
      vertex 34.172 66.2706 0
    endloop
  endfacet
  facet normal 0.999962 -0.00874322 0
    outer loop
      vertex 34.2877 79.5032 0
      vertex 34.2877 79.5032 4
      vertex 34.172 66.2706 4
    endloop
  endfacet
  facet normal -0.00874988 -0.999962 0
    outer loop
      vertex 38.2876 79.4682 0
      vertex 34.2877 79.5032 4
      vertex 34.2877 79.5032 0
    endloop
  endfacet
  facet normal -0.00874988 -0.999962 0
    outer loop
      vertex 38.2876 79.4682 0
      vertex 38.2876 79.4682 4
      vertex 34.2877 79.5032 4
    endloop
  endfacet
  facet normal -0.999962 0.00875801 0
    outer loop
      vertex 38.2333 73.2684 0
      vertex 38.2876 79.4682 4
      vertex 38.2876 79.4682 0
    endloop
  endfacet
  facet normal -0.999962 0.00875801 0
    outer loop
      vertex 38.2333 73.2684 0
      vertex 38.2333 73.2684 4
      vertex 38.2876 79.4682 4
    endloop
  endfacet
  facet normal -0.00874166 -0.999962 0
    outer loop
      vertex 62.2324 73.0586 0
      vertex 38.2333 73.2684 4
      vertex 38.2333 73.2684 0
    endloop
  endfacet
  facet normal -0.00874166 -0.999962 0
    outer loop
      vertex 62.2324 73.0586 0
      vertex 62.2324 73.0586 4
      vertex 38.2333 73.2684 4
    endloop
  endfacet
  facet normal 0.999962 -0.00874575 0
    outer loop
      vertex 62.3838 90.3692 0
      vertex 62.2324 73.0586 4
      vertex 62.2324 73.0586 0
    endloop
  endfacet
  facet normal 0.999962 -0.00874575 0
    outer loop
      vertex 62.3838 90.3692 0
      vertex 62.3838 90.3692 4
      vertex 62.2324 73.0586 4
    endloop
  endfacet
  facet normal -0.0087501 -0.999962 0
    outer loop
      vertex 66.3836 90.3342 0
      vertex 62.3838 90.3692 4
      vertex 62.3838 90.3692 0
    endloop
  endfacet
  facet normal -0.0087501 -0.999962 0
    outer loop
      vertex 66.3836 90.3342 0
      vertex 66.3836 90.3342 4
      vertex 62.3838 90.3692 4
    endloop
  endfacet
  facet normal 0.999962 -0.00874575 0
    outer loop
      vertex 66.4593 98.9895 0
      vertex 66.3836 90.3342 4
      vertex 66.3836 90.3342 0
    endloop
  endfacet
  facet normal 0.999962 -0.00874575 0
    outer loop
      vertex 66.4593 98.9895 0
      vertex 66.4593 98.9895 4
      vertex 66.3836 90.3342 4
    endloop
  endfacet
  facet normal 0.0087501 0.999962 0
    outer loop
      vertex 62.4595 99.0245 0
      vertex 66.4593 98.9895 4
      vertex 66.4593 98.9895 0
    endloop
  endfacet
  facet normal 0.0087501 0.999962 -0
    outer loop
      vertex 62.4595 99.0245 0
      vertex 62.4595 99.0245 4
      vertex 66.4593 98.9895 4
    endloop
  endfacet
  facet normal 0.999962 -0.00874329 0
    outer loop
      vertex 62.5752 112.257 0
      vertex 62.4595 99.0245 4
      vertex 62.4595 99.0245 0
    endloop
  endfacet
  facet normal 0.999962 -0.00874329 0
    outer loop
      vertex 62.5752 112.257 0
      vertex 62.5752 112.257 4
      vertex 62.4595 99.0245 4
    endloop
  endfacet
  facet normal -0.0087501 -0.999962 0
    outer loop
      vertex 66.575 112.222 0
      vertex 62.5752 112.257 4
      vertex 62.5752 112.257 0
    endloop
  endfacet
  facet normal -0.0087501 -0.999962 0
    outer loop
      vertex 66.575 112.222 0
      vertex 66.575 112.222 4
      vertex 62.5752 112.257 4
    endloop
  endfacet
  facet normal -0.999962 0.0087416 0
    outer loop
      vertex 66.5208 106.022 0
      vertex 66.575 112.222 4
      vertex 66.575 112.222 0
    endloop
  endfacet
  facet normal -0.999962 0.0087416 0
    outer loop
      vertex 66.5208 106.022 0
      vertex 66.5208 106.022 4
      vertex 66.575 112.222 4
    endloop
  endfacet
  facet normal -0.00870833 -0.999962 0
    outer loop
      vertex 90.5199 105.813 0
      vertex 66.5208 106.022 4
      vertex 66.5208 106.022 0
    endloop
  endfacet
  facet normal -0.00870833 -0.999962 0
    outer loop
      vertex 90.5199 105.813 0
      vertex 90.5199 105.813 4
      vertex 66.5208 106.022 4
    endloop
  endfacet
  facet normal 0.999962 -0.00874605 0
    outer loop
      vertex 90.6713 123.123 0
      vertex 90.5199 105.813 4
      vertex 90.5199 105.813 0
    endloop
  endfacet
  facet normal 0.999962 -0.00874605 0
    outer loop
      vertex 90.6713 123.123 0
      vertex 90.6713 123.123 4
      vertex 90.5199 105.813 4
    endloop
  endfacet
  facet normal -0.0087501 -0.999962 0
    outer loop
      vertex 94.6711 123.088 0
      vertex 90.6713 123.123 4
      vertex 90.6713 123.123 0
    endloop
  endfacet
  facet normal -0.0087501 -0.999962 0
    outer loop
      vertex 94.6711 123.088 0
      vertex 94.6711 123.088 4
      vertex 90.6713 123.123 4
    endloop
  endfacet
  facet normal 0.999962 -0.00874605 0
    outer loop
      vertex 94.7468 131.743 0
      vertex 94.6711 123.088 4
      vertex 94.6711 123.088 0
    endloop
  endfacet
  facet normal 0.999962 -0.00874605 0
    outer loop
      vertex 94.7468 131.743 0
      vertex 94.7468 131.743 4
      vertex 94.6711 123.088 4
    endloop
  endfacet
  facet normal 0.00874988 0.999962 0
    outer loop
      vertex 90.7469 131.778 0
      vertex 94.7468 131.743 4
      vertex 94.7468 131.743 0
    endloop
  endfacet
  facet normal 0.00874988 0.999962 -0
    outer loop
      vertex 90.7469 131.778 0
      vertex 90.7469 131.778 4
      vertex 94.7468 131.743 4
    endloop
  endfacet
  facet normal 0.999962 -0.00874296 0
    outer loop
      vertex 90.8626 145.011 0
      vertex 90.7469 131.778 4
      vertex 90.7469 131.778 0
    endloop
  endfacet
  facet normal 0.999962 -0.00874296 0
    outer loop
      vertex 90.8626 145.011 0
      vertex 90.8626 145.011 4
      vertex 90.7469 131.778 4
    endloop
  endfacet
  facet normal -0.00874988 -0.999962 0
    outer loop
      vertex 94.8625 144.976 0
      vertex 90.8626 145.011 4
      vertex 90.8626 145.011 0
    endloop
  endfacet
  facet normal -0.00874988 -0.999962 0
    outer loop
      vertex 94.8625 144.976 0
      vertex 94.8625 144.976 4
      vertex 90.8626 145.011 4
    endloop
  endfacet
  facet normal -0.999962 0.0087416 0
    outer loop
      vertex 94.8083 138.776 0
      vertex 94.8625 144.976 4
      vertex 94.8625 144.976 0
    endloop
  endfacet
  facet normal -0.999962 0.0087416 0
    outer loop
      vertex 94.8083 138.776 0
      vertex 94.8083 138.776 4
      vertex 94.8625 144.976 4
    endloop
  endfacet
  facet normal -0.00875014 -0.999962 0
    outer loop
      vertex 118.807 138.566 0
      vertex 94.8083 138.776 4
      vertex 94.8083 138.776 0
    endloop
  endfacet
  facet normal -0.00875014 -0.999962 0
    outer loop
      vertex 118.807 138.566 0
      vertex 118.807 138.566 4
      vertex 94.8083 138.776 4
    endloop
  endfacet
  facet normal 0.756821 -0.653622 0
    outer loop
      vertex 127.294 148.393 0
      vertex 118.807 138.566 4
      vertex 118.807 138.566 0
    endloop
  endfacet
  facet normal 0.756821 -0.653622 0
    outer loop
      vertex 127.294 148.393 0
      vertex 127.294 148.393 4
      vertex 118.807 138.566 4
    endloop
  endfacet
  facet normal 0.65362 0.756823 0
    outer loop
      vertex 111.234 162.263 0
      vertex 127.294 148.393 4
      vertex 127.294 148.393 0
    endloop
  endfacet
  facet normal 0.65362 0.756823 -0
    outer loop
      vertex 111.234 162.263 0
      vertex 111.234 162.263 4
      vertex 127.294 148.393 4
    endloop
  endfacet
  facet normal 0.353899 0.935284 -0
    outer loop
      vertex 17.5525 51.1586 0
      vertex 17.5525 51.1586 4
      vertex 19.5901 50.3876 0
    endloop
  endfacet
  facet normal 0.353899 0.935284 0
    outer loop
      vertex 19.5901 50.3876 4
      vertex 19.5901 50.3876 0
      vertex 17.5525 51.1586 4
    endloop
  endfacet
  facet normal 0.760099 0.649808 -0
    outer loop
      vertex 15.6041 53.4377 0
      vertex 15.6041 53.4377 4
      vertex 17.5525 51.1586 0
    endloop
  endfacet
  facet normal 0.760099 0.649808 0
    outer loop
      vertex 17.5525 51.1586 4
      vertex 17.5525 51.1586 0
      vertex 15.6041 53.4377 4
    endloop
  endfacet
  facet normal 0.901127 0.433556 -0
    outer loop
      vertex 13.8298 57.1255 0
      vertex 13.8298 57.1255 4
      vertex 15.6041 53.4377 0
    endloop
  endfacet
  facet normal 0.901127 0.433556 0
    outer loop
      vertex 15.6041 53.4377 4
      vertex 15.6041 53.4377 0
      vertex 13.8298 57.1255 4
    endloop
  endfacet
  facet normal 0.955562 0.294789 -0
    outer loop
      vertex 12.3073 62.0607 0
      vertex 12.3073 62.0607 4
      vertex 13.8298 57.1255 0
    endloop
  endfacet
  facet normal 0.955562 0.294789 0
    outer loop
      vertex 13.8298 57.1255 4
      vertex 13.8298 57.1255 0
      vertex 12.3073 62.0607 4
    endloop
  endfacet
  facet normal 0.980234 0.197841 -0
    outer loop
      vertex 11.103 68.0276 0
      vertex 11.103 68.0276 4
      vertex 12.3073 62.0607 0
    endloop
  endfacet
  facet normal 0.980234 0.197841 0
    outer loop
      vertex 12.3073 62.0607 4
      vertex 12.3073 62.0607 0
      vertex 11.103 68.0276 4
    endloop
  endfacet
  facet normal 0.992439 0.122738 -0
    outer loop
      vertex 10.2697 74.7655 0
      vertex 10.2697 74.7655 4
      vertex 11.103 68.0276 0
    endloop
  endfacet
  facet normal 0.992439 0.122738 0
    outer loop
      vertex 11.103 68.0276 4
      vertex 11.103 68.0276 0
      vertex 10.2697 74.7655 4
    endloop
  endfacet
  facet normal 0.998262 0.0589376 -0
    outer loop
      vertex 9.84376 81.9799 0
      vertex 9.84376 81.9799 4
      vertex 10.2697 74.7655 0
    endloop
  endfacet
  facet normal 0.998262 0.0589376 0
    outer loop
      vertex 10.2697 74.7655 4
      vertex 10.2697 74.7655 0
      vertex 9.84376 81.9799 4
    endloop
  endfacet
  facet normal 1 0 -0
    outer loop
      vertex 9.84376 89.3554 0
      vertex 9.84376 89.3554 4
      vertex 9.84376 81.9799 0
    endloop
  endfacet
  facet normal 1 -0 0
    outer loop
      vertex 9.84376 81.9799 4
      vertex 9.84376 81.9799 0
      vertex 9.84376 89.3554 4
    endloop
  endfacet
  facet normal 0.998262 -0.0589384 0
    outer loop
      vertex 10.2697 96.5697 0
      vertex 10.2697 96.5697 4
      vertex 9.84376 89.3554 0
    endloop
  endfacet
  facet normal 0.998262 -0.0589384 0
    outer loop
      vertex 9.84376 89.3554 4
      vertex 9.84376 89.3554 0
      vertex 10.2697 96.5697 4
    endloop
  endfacet
  facet normal 0.99244 -0.122731 0
    outer loop
      vertex 11.103 103.308 0
      vertex 11.103 103.308 4
      vertex 10.2697 96.5697 0
    endloop
  endfacet
  facet normal 0.99244 -0.122731 0
    outer loop
      vertex 10.2697 96.5697 4
      vertex 10.2697 96.5697 0
      vertex 11.103 103.308 4
    endloop
  endfacet
  facet normal 0.980235 -0.197838 0
    outer loop
      vertex 12.3073 109.275 0
      vertex 12.3073 109.275 4
      vertex 11.103 103.308 0
    endloop
  endfacet
  facet normal 0.980235 -0.197838 0
    outer loop
      vertex 11.103 103.308 4
      vertex 11.103 103.308 0
      vertex 12.3073 109.275 4
    endloop
  endfacet
  facet normal 0.955559 -0.2948 0
    outer loop
      vertex 13.8298 114.21 0
      vertex 13.8298 114.21 4
      vertex 12.3073 109.275 0
    endloop
  endfacet
  facet normal 0.955559 -0.2948 0
    outer loop
      vertex 12.3073 109.275 4
      vertex 12.3073 109.275 0
      vertex 13.8298 114.21 4
    endloop
  endfacet
  facet normal 0.901136 -0.433537 0
    outer loop
      vertex 15.6041 117.898 0
      vertex 15.6041 117.898 4
      vertex 13.8298 114.21 0
    endloop
  endfacet
  facet normal 0.901136 -0.433537 0
    outer loop
      vertex 13.8298 114.21 4
      vertex 13.8298 114.21 0
      vertex 15.6041 117.898 4
    endloop
  endfacet
  facet normal 0.760085 -0.649824 0
    outer loop
      vertex 17.5525 120.177 0
      vertex 17.5525 120.177 4
      vertex 15.6041 117.898 0
    endloop
  endfacet
  facet normal 0.760085 -0.649824 0
    outer loop
      vertex 15.6041 117.898 4
      vertex 15.6041 117.898 0
      vertex 17.5525 120.177 4
    endloop
  endfacet
  facet normal 0.353899 -0.935284 0
    outer loop
      vertex 19.5901 120.948 0
      vertex 19.5901 120.948 4
      vertex 17.5525 120.177 0
    endloop
  endfacet
  facet normal 0.353899 -0.935284 0
    outer loop
      vertex 17.5525 120.177 4
      vertex 17.5525 120.177 0
      vertex 19.5901 120.948 4
    endloop
  endfacet
  facet normal -0.353914 -0.935278 0
    outer loop
      vertex 21.6276 120.177 0
      vertex 21.6276 120.177 4
      vertex 19.5901 120.948 0
    endloop
  endfacet
  facet normal -0.353914 -0.935278 -0
    outer loop
      vertex 19.5901 120.948 4
      vertex 19.5901 120.948 0
      vertex 21.6276 120.177 4
    endloop
  endfacet
  facet normal -0.760209 -0.649679 0
    outer loop
      vertex 23.5761 117.897 0
      vertex 23.5761 117.897 4
      vertex 21.6276 120.177 0
    endloop
  endfacet
  facet normal -0.760209 -0.649679 -0
    outer loop
      vertex 21.6276 120.177 4
      vertex 21.6276 120.177 0
      vertex 23.5761 117.897 4
    endloop
  endfacet
  facet normal -0.90109 -0.433633 0
    outer loop
      vertex 25.3504 114.21 0
      vertex 25.3504 114.21 4
      vertex 23.5761 117.897 0
    endloop
  endfacet
  facet normal -0.90109 -0.433633 -0
    outer loop
      vertex 23.5761 117.897 4
      vertex 23.5761 117.897 0
      vertex 25.3504 114.21 4
    endloop
  endfacet
  facet normal -0.955559 -0.2948 0
    outer loop
      vertex 26.8729 109.275 0
      vertex 26.8729 109.275 4
      vertex 25.3504 114.21 0
    endloop
  endfacet
  facet normal -0.955559 -0.2948 -0
    outer loop
      vertex 25.3504 114.21 4
      vertex 25.3504 114.21 0
      vertex 26.8729 109.275 4
    endloop
  endfacet
  facet normal -0.980238 -0.197822 0
    outer loop
      vertex 28.0771 103.308 0
      vertex 28.0771 103.308 4
      vertex 26.8729 109.275 0
    endloop
  endfacet
  facet normal -0.980238 -0.197822 -0
    outer loop
      vertex 26.8729 109.275 4
      vertex 26.8729 109.275 0
      vertex 28.0771 103.308 4
    endloop
  endfacet
  facet normal -0.99244 -0.122731 0
    outer loop
      vertex 28.9104 96.5697 0
      vertex 28.9104 96.5697 4
      vertex 28.0771 103.308 0
    endloop
  endfacet
  facet normal -0.99244 -0.122731 -0
    outer loop
      vertex 28.0771 103.308 4
      vertex 28.0771 103.308 0
      vertex 28.9104 96.5697 4
    endloop
  endfacet
  facet normal -0.998261 -0.0589467 0
    outer loop
      vertex 29.3364 89.3554 0
      vertex 29.3364 89.3554 4
      vertex 28.9104 96.5697 0
    endloop
  endfacet
  facet normal -0.998261 -0.0589467 -0
    outer loop
      vertex 28.9104 96.5697 4
      vertex 28.9104 96.5697 0
      vertex 29.3364 89.3554 4
    endloop
  endfacet
  facet normal -1 0 0
    outer loop
      vertex 29.3364 81.9799 0
      vertex 29.3364 81.9799 4
      vertex 29.3364 89.3554 0
    endloop
  endfacet
  facet normal -1 -0 -0
    outer loop
      vertex 29.3364 89.3554 4
      vertex 29.3364 89.3554 0
      vertex 29.3364 81.9799 4
    endloop
  endfacet
  facet normal -0.998261 0.0589459 0
    outer loop
      vertex 28.9104 74.7655 0
      vertex 28.9104 74.7655 4
      vertex 29.3364 81.9799 0
    endloop
  endfacet
  facet normal -0.998261 0.0589459 0
    outer loop
      vertex 29.3364 81.9799 4
      vertex 29.3364 81.9799 0
      vertex 28.9104 74.7655 4
    endloop
  endfacet
  facet normal -0.992439 0.122738 0
    outer loop
      vertex 28.0771 68.0276 0
      vertex 28.0771 68.0276 4
      vertex 28.9104 74.7655 0
    endloop
  endfacet
  facet normal -0.992439 0.122738 0
    outer loop
      vertex 28.9104 74.7655 4
      vertex 28.9104 74.7655 0
      vertex 28.0771 68.0276 4
    endloop
  endfacet
  facet normal -0.980237 0.197825 0
    outer loop
      vertex 26.8729 62.0607 0
      vertex 26.8729 62.0607 4
      vertex 28.0771 68.0276 0
    endloop
  endfacet
  facet normal -0.980237 0.197825 0
    outer loop
      vertex 28.0771 68.0276 4
      vertex 28.0771 68.0276 0
      vertex 26.8729 62.0607 4
    endloop
  endfacet
  facet normal -0.955562 0.294789 0
    outer loop
      vertex 25.3504 57.1255 0
      vertex 25.3504 57.1255 4
      vertex 26.8729 62.0607 0
    endloop
  endfacet
  facet normal -0.955562 0.294789 0
    outer loop
      vertex 26.8729 62.0607 4
      vertex 26.8729 62.0607 0
      vertex 25.3504 57.1255 4
    endloop
  endfacet
  facet normal -0.901127 0.433556 0
    outer loop
      vertex 23.5761 53.4377 0
      vertex 23.5761 53.4377 4
      vertex 25.3504 57.1255 0
    endloop
  endfacet
  facet normal -0.901127 0.433556 0
    outer loop
      vertex 25.3504 57.1255 4
      vertex 25.3504 57.1255 0
      vertex 23.5761 53.4377 4
    endloop
  endfacet
  facet normal -0.760082 0.649827 0
    outer loop
      vertex 21.6276 51.1586 0
      vertex 21.6276 51.1586 4
      vertex 23.5761 53.4377 0
    endloop
  endfacet
  facet normal -0.760082 0.649827 0
    outer loop
      vertex 23.5761 53.4377 4
      vertex 23.5761 53.4377 0
      vertex 21.6276 51.1586 4
    endloop
  endfacet
  facet normal -0.353914 0.935278 0
    outer loop
      vertex 19.5901 50.3876 0
      vertex 19.5901 50.3876 4
      vertex 21.6276 51.1586 0
    endloop
  endfacet
  facet normal -0.353914 0.935278 0
    outer loop
      vertex 21.6276 51.1586 4
      vertex 21.6276 51.1586 0
      vertex 19.5901 50.3876 4
    endloop
  endfacet
  facet normal -0.244595 0.969625 0
    outer loop
      vertex 48.8775 82.5895 0
      vertex 48.8775 82.5895 4
      vertex 50.9151 83.1035 0
    endloop
  endfacet
  facet normal -0.244595 0.969625 0
    outer loop
      vertex 50.9151 83.1035 4
      vertex 50.9151 83.1035 0
      vertex 48.8775 82.5895 4
    endloop
  endfacet
  facet normal 0.244607 0.969622 -0
    outer loop
      vertex 46.84 83.1035 0
      vertex 46.84 83.1035 4
      vertex 48.8775 82.5895 0
    endloop
  endfacet
  facet normal 0.244607 0.969622 0
    outer loop
      vertex 48.8775 82.5895 4
      vertex 48.8775 82.5895 0
      vertex 46.84 83.1035 4
    endloop
  endfacet
  facet normal 0.614924 0.788587 -0
    outer loop
      vertex 44.8915 84.6229 0
      vertex 44.8915 84.6229 4
      vertex 46.84 83.1035 0
    endloop
  endfacet
  facet normal 0.614924 0.788587 0
    outer loop
      vertex 46.84 83.1035 4
      vertex 46.84 83.1035 0
      vertex 44.8915 84.6229 4
    endloop
  endfacet
  facet normal 0.810891 0.585197 -0
    outer loop
      vertex 43.1172 87.0815 0
      vertex 43.1172 87.0815 4
      vertex 44.8915 84.6229 0
    endloop
  endfacet
  facet normal 0.810891 0.585197 0
    outer loop
      vertex 44.8915 84.6229 4
      vertex 44.8915 84.6229 0
      vertex 43.1172 87.0815 4
    endloop
  endfacet
  facet normal 0.90754 0.419966 -0
    outer loop
      vertex 41.5947 90.3716 0
      vertex 41.5947 90.3716 4
      vertex 43.1172 87.0815 0
    endloop
  endfacet
  facet normal 0.90754 0.419966 0
    outer loop
      vertex 43.1172 87.0815 4
      vertex 43.1172 87.0815 0
      vertex 41.5947 90.3716 4
    endloop
  endfacet
  facet normal 0.957106 0.289738 -0
    outer loop
      vertex 40.3905 94.3495 0
      vertex 40.3905 94.3495 4
      vertex 41.5947 90.3716 0
    endloop
  endfacet
  facet normal 0.957106 0.289738 0
    outer loop
      vertex 41.5947 90.3716 4
      vertex 41.5947 90.3716 0
      vertex 40.3905 94.3495 4
    endloop
  endfacet
  facet normal 0.983225 0.182396 -0
    outer loop
      vertex 39.5572 98.8415 0
      vertex 39.5572 98.8415 4
      vertex 40.3905 94.3495 0
    endloop
  endfacet
  facet normal 0.983225 0.182396 0
    outer loop
      vertex 40.3905 94.3495 4
      vertex 40.3905 94.3495 0
      vertex 39.5572 98.8415 4
    endloop
  endfacet
  facet normal 0.9961 0.0882293 -0
    outer loop
      vertex 39.1312 103.651 0
      vertex 39.1312 103.651 4
      vertex 39.5572 98.8415 0
    endloop
  endfacet
  facet normal 0.9961 0.0882293 0
    outer loop
      vertex 39.5572 98.8415 4
      vertex 39.5572 98.8415 0
      vertex 39.1312 103.651 4
    endloop
  endfacet
  facet normal 1 0 -0
    outer loop
      vertex 39.1312 108.568 0
      vertex 39.1312 108.568 4
      vertex 39.1312 103.651 0
    endloop
  endfacet
  facet normal 1 -0 0
    outer loop
      vertex 39.1312 103.651 4
      vertex 39.1312 103.651 0
      vertex 39.1312 108.568 4
    endloop
  endfacet
  facet normal 0.996101 -0.0882202 0
    outer loop
      vertex 39.5572 113.378 0
      vertex 39.5572 113.378 4
      vertex 39.1312 108.568 0
    endloop
  endfacet
  facet normal 0.996101 -0.0882202 0
    outer loop
      vertex 39.1312 108.568 4
      vertex 39.1312 108.568 0
      vertex 39.5572 113.378 4
    endloop
  endfacet
  facet normal 0.983225 -0.182396 0
    outer loop
      vertex 40.3905 117.87 0
      vertex 40.3905 117.87 4
      vertex 39.5572 113.378 0
    endloop
  endfacet
  facet normal 0.983225 -0.182396 0
    outer loop
      vertex 39.5572 113.378 4
      vertex 39.5572 113.378 0
      vertex 40.3905 117.87 4
    endloop
  endfacet
  facet normal 0.957088 -0.289798 0
    outer loop
      vertex 41.5947 121.847 0
      vertex 41.5947 121.847 4
      vertex 40.3905 117.87 0
    endloop
  endfacet
  facet normal 0.957088 -0.289798 0
    outer loop
      vertex 40.3905 117.87 4
      vertex 40.3905 117.87 0
      vertex 41.5947 121.847 4
    endloop
  endfacet
  facet normal 0.907584 -0.419871 0
    outer loop
      vertex 43.1172 125.138 0
      vertex 43.1172 125.138 4
      vertex 41.5947 121.847 0
    endloop
  endfacet
  facet normal 0.907584 -0.419871 0
    outer loop
      vertex 41.5947 121.847 4
      vertex 41.5947 121.847 0
      vertex 43.1172 125.138 4
    endloop
  endfacet
  facet normal 0.810824 -0.585291 0
    outer loop
      vertex 44.8915 127.596 0
      vertex 44.8915 127.596 4
      vertex 43.1172 125.138 0
    endloop
  endfacet
  facet normal 0.810824 -0.585291 0
    outer loop
      vertex 43.1172 125.138 4
      vertex 43.1172 125.138 0
      vertex 44.8915 127.596 4
    endloop
  endfacet
  facet normal 0.615075 -0.788469 0
    outer loop
      vertex 46.84 129.116 0
      vertex 46.84 129.116 4
      vertex 44.8915 127.596 0
    endloop
  endfacet
  facet normal 0.615075 -0.788469 0
    outer loop
      vertex 44.8915 127.596 4
      vertex 44.8915 127.596 0
      vertex 46.84 129.116 4
    endloop
  endfacet
  facet normal 0.244607 -0.969622 0
    outer loop
      vertex 48.8775 129.63 0
      vertex 48.8775 129.63 4
      vertex 46.84 129.116 0
    endloop
  endfacet
  facet normal 0.244607 -0.969622 0
    outer loop
      vertex 46.84 129.116 4
      vertex 46.84 129.116 0
      vertex 48.8775 129.63 4
    endloop
  endfacet
  facet normal -0.244595 -0.969625 0
    outer loop
      vertex 50.9151 129.116 0
      vertex 50.9151 129.116 4
      vertex 48.8775 129.63 0
    endloop
  endfacet
  facet normal -0.244595 -0.969625 -0
    outer loop
      vertex 48.8775 129.63 4
      vertex 48.8775 129.63 0
      vertex 50.9151 129.116 4
    endloop
  endfacet
  facet normal -0.615075 -0.788469 0
    outer loop
      vertex 52.8636 127.596 0
      vertex 52.8636 127.596 4
      vertex 50.9151 129.116 0
    endloop
  endfacet
  facet normal -0.615075 -0.788469 -0
    outer loop
      vertex 50.9151 129.116 4
      vertex 50.9151 129.116 0
      vertex 52.8636 127.596 4
    endloop
  endfacet
  facet normal -0.810839 -0.585269 0
    outer loop
      vertex 54.6378 125.138 0
      vertex 54.6378 125.138 4
      vertex 52.8636 127.596 0
    endloop
  endfacet
  facet normal -0.810839 -0.585269 -0
    outer loop
      vertex 52.8636 127.596 4
      vertex 52.8636 127.596 0
      vertex 54.6378 125.138 4
    endloop
  endfacet
  facet normal -0.907573 -0.419894 0
    outer loop
      vertex 56.1604 121.847 0
      vertex 56.1604 121.847 4
      vertex 54.6378 125.138 0
    endloop
  endfacet
  facet normal -0.907573 -0.419894 -0
    outer loop
      vertex 54.6378 125.138 4
      vertex 54.6378 125.138 0
      vertex 56.1604 121.847 4
    endloop
  endfacet
  facet normal -0.957088 -0.289798 0
    outer loop
      vertex 57.3646 117.87 0
      vertex 57.3646 117.87 4
      vertex 56.1604 121.847 0
    endloop
  endfacet
  facet normal -0.957088 -0.289798 -0
    outer loop
      vertex 56.1604 121.847 4
      vertex 56.1604 121.847 0
      vertex 57.3646 117.87 4
    endloop
  endfacet
  facet normal -0.983225 -0.182396 0
    outer loop
      vertex 58.1979 113.378 0
      vertex 58.1979 113.378 4
      vertex 57.3646 117.87 0
    endloop
  endfacet
  facet normal -0.983225 -0.182396 -0
    outer loop
      vertex 57.3646 117.87 4
      vertex 57.3646 117.87 0
      vertex 58.1979 113.378 4
    endloop
  endfacet
  facet normal -0.996101 -0.0882202 0
    outer loop
      vertex 58.6239 108.568 0
      vertex 58.6239 108.568 4
      vertex 58.1979 113.378 0
    endloop
  endfacet
  facet normal -0.996101 -0.0882202 -0
    outer loop
      vertex 58.1979 113.378 4
      vertex 58.1979 113.378 0
      vertex 58.6239 108.568 4
    endloop
  endfacet
  facet normal -1 0 0
    outer loop
      vertex 58.6239 103.651 0
      vertex 58.6239 103.651 4
      vertex 58.6239 108.568 0
    endloop
  endfacet
  facet normal -1 -0 -0
    outer loop
      vertex 58.6239 108.568 4
      vertex 58.6239 108.568 0
      vertex 58.6239 103.651 4
    endloop
  endfacet
  facet normal -0.9961 0.0882293 0
    outer loop
      vertex 58.1979 98.8415 0
      vertex 58.1979 98.8415 4
      vertex 58.6239 103.651 0
    endloop
  endfacet
  facet normal -0.9961 0.0882293 0
    outer loop
      vertex 58.6239 103.651 4
      vertex 58.6239 103.651 0
      vertex 58.1979 98.8415 4
    endloop
  endfacet
  facet normal -0.983225 0.182396 0
    outer loop
      vertex 57.3646 94.3495 0
      vertex 57.3646 94.3495 4
      vertex 58.1979 98.8415 0
    endloop
  endfacet
  facet normal -0.983225 0.182396 0
    outer loop
      vertex 58.1979 98.8415 4
      vertex 58.1979 98.8415 0
      vertex 57.3646 94.3495 4
    endloop
  endfacet
  facet normal -0.957106 0.289738 0
    outer loop
      vertex 56.1604 90.3716 0
      vertex 56.1604 90.3716 4
      vertex 57.3646 94.3495 0
    endloop
  endfacet
  facet normal -0.957106 0.289738 0
    outer loop
      vertex 57.3646 94.3495 4
      vertex 57.3646 94.3495 0
      vertex 56.1604 90.3716 4
    endloop
  endfacet
  facet normal -0.907529 0.419989 0
    outer loop
      vertex 54.6378 87.0815 0
      vertex 54.6378 87.0815 4
      vertex 56.1604 90.3716 0
    endloop
  endfacet
  facet normal -0.907529 0.419989 0
    outer loop
      vertex 56.1604 90.3716 4
      vertex 56.1604 90.3716 0
      vertex 54.6378 87.0815 4
    endloop
  endfacet
  facet normal -0.810896 0.585191 0
    outer loop
      vertex 52.8636 84.623 0
      vertex 52.8636 84.623 4
      vertex 54.6378 87.0815 0
    endloop
  endfacet
  facet normal -0.810896 0.585191 0
    outer loop
      vertex 54.6378 87.0815 4
      vertex 54.6378 87.0815 0
      vertex 52.8636 84.623 4
    endloop
  endfacet
  facet normal -0.614949 0.788567 0
    outer loop
      vertex 50.9151 83.1035 0
      vertex 50.9151 83.1035 4
      vertex 52.8636 84.623 0
    endloop
  endfacet
  facet normal -0.614949 0.788567 0
    outer loop
      vertex 52.8636 84.623 4
      vertex 52.8636 84.623 0
      vertex 50.9151 83.1035 4
    endloop
  endfacet
  facet normal -0.56941 0.822054 0
    outer loop
      vertex 82.151 120.368 0
      vertex 82.151 120.368 4
      vertex 83.9253 121.597 0
    endloop
  endfacet
  facet normal -0.56941 0.822054 0
    outer loop
      vertex 83.9253 121.597 4
      vertex 83.9253 121.597 0
      vertex 82.151 120.368 4
    endloop
  endfacet
  facet normal -0.363397 0.931634 0
    outer loop
      vertex 80.2026 119.608 0
      vertex 80.2026 119.608 4
      vertex 82.151 120.368 0
    endloop
  endfacet
  facet normal -0.363397 0.931634 0
    outer loop
      vertex 82.151 120.368 4
      vertex 82.151 120.368 0
      vertex 80.2026 119.608 4
    endloop
  endfacet
  facet normal -0.125137 0.992139 0
    outer loop
      vertex 78.165 119.351 0
      vertex 78.165 119.351 4
      vertex 80.2026 119.608 0
    endloop
  endfacet
  facet normal -0.125137 0.992139 0
    outer loop
      vertex 80.2026 119.608 4
      vertex 80.2026 119.608 0
      vertex 78.165 119.351 4
    endloop
  endfacet
  facet normal 0.125143 0.992139 -0
    outer loop
      vertex 76.1275 119.608 0
      vertex 76.1275 119.608 4
      vertex 78.165 119.351 0
    endloop
  endfacet
  facet normal 0.125143 0.992139 0
    outer loop
      vertex 78.165 119.351 4
      vertex 78.165 119.351 0
      vertex 76.1275 119.608 4
    endloop
  endfacet
  facet normal 0.363381 0.931641 -0
    outer loop
      vertex 74.179 120.368 0
      vertex 74.179 120.368 4
      vertex 76.1275 119.608 0
    endloop
  endfacet
  facet normal 0.363381 0.931641 0
    outer loop
      vertex 76.1275 119.608 4
      vertex 76.1275 119.608 0
      vertex 74.179 120.368 4
    endloop
  endfacet
  facet normal 0.56941 0.822054 -0
    outer loop
      vertex 72.4047 121.597 0
      vertex 72.4047 121.597 4
      vertex 74.179 120.368 0
    endloop
  endfacet
  facet normal 0.56941 0.822054 0
    outer loop
      vertex 74.179 120.368 4
      vertex 74.179 120.368 0
      vertex 72.4047 121.597 4
    endloop
  endfacet
  facet normal 0.733905 0.679252 -0
    outer loop
      vertex 70.8822 123.242 0
      vertex 70.8822 123.242 4
      vertex 72.4047 121.597 0
    endloop
  endfacet
  facet normal 0.733905 0.679252 0
    outer loop
      vertex 72.4047 121.597 4
      vertex 72.4047 121.597 0
      vertex 70.8822 123.242 4
    endloop
  endfacet
  facet normal 0.855437 0.517907 -0
    outer loop
      vertex 69.678 125.231 0
      vertex 69.678 125.231 4
      vertex 70.8822 123.242 0
    endloop
  endfacet
  facet normal 0.855437 0.517907 0
    outer loop
      vertex 70.8822 123.242 4
      vertex 70.8822 123.242 0
      vertex 69.678 125.231 4
    endloop
  endfacet
  facet normal 0.937552 0.347846 -0
    outer loop
      vertex 68.8447 127.477 0
      vertex 68.8447 127.477 4
      vertex 69.678 125.231 0
    endloop
  endfacet
  facet normal 0.937552 0.347846 0
    outer loop
      vertex 69.678 125.231 4
      vertex 69.678 125.231 0
      vertex 68.8447 127.477 4
    endloop
  endfacet
  facet normal 0.984672 0.174416 -0
    outer loop
      vertex 68.4187 129.882 0
      vertex 68.4187 129.882 4
      vertex 68.8447 127.477 0
    endloop
  endfacet
  facet normal 0.984672 0.174416 0
    outer loop
      vertex 68.8447 127.477 4
      vertex 68.8447 127.477 0
      vertex 68.4187 129.882 4
    endloop
  endfacet
  facet normal 1 0 -0
    outer loop
      vertex 68.4187 132.341 0
      vertex 68.4187 132.341 4
      vertex 68.4187 129.882 0
    endloop
  endfacet
  facet normal 1 -0 0
    outer loop
      vertex 68.4187 129.882 4
      vertex 68.4187 129.882 0
      vertex 68.4187 132.341 4
    endloop
  endfacet
  facet normal 0.98466 -0.174486 0
    outer loop
      vertex 68.8447 134.745 0
      vertex 68.8447 134.745 4
      vertex 68.4187 132.341 0
    endloop
  endfacet
  facet normal 0.98466 -0.174486 0
    outer loop
      vertex 68.4187 132.341 4
      vertex 68.4187 132.341 0
      vertex 68.8447 134.745 4
    endloop
  endfacet
  facet normal 0.937552 -0.347846 0
    outer loop
      vertex 69.678 136.991 0
      vertex 69.678 136.991 4
      vertex 68.8447 134.745 0
    endloop
  endfacet
  facet normal 0.937552 -0.347846 0
    outer loop
      vertex 68.8447 134.745 4
      vertex 68.8447 134.745 0
      vertex 69.678 136.991 4
    endloop
  endfacet
  facet normal 0.855437 -0.517907 0
    outer loop
      vertex 70.8822 138.98 0
      vertex 70.8822 138.98 4
      vertex 69.678 136.991 0
    endloop
  endfacet
  facet normal 0.855437 -0.517907 0
    outer loop
      vertex 69.678 136.991 4
      vertex 69.678 136.991 0
      vertex 70.8822 138.98 4
    endloop
  endfacet
  facet normal 0.733905 -0.679252 0
    outer loop
      vertex 72.4047 140.625 0
      vertex 72.4047 140.625 4
      vertex 70.8822 138.98 0
    endloop
  endfacet
  facet normal 0.733905 -0.679252 0
    outer loop
      vertex 70.8822 138.98 4
      vertex 70.8822 138.98 0
      vertex 72.4047 140.625 4
    endloop
  endfacet
  facet normal 0.569723 -0.821837 0
    outer loop
      vertex 74.179 141.855 0
      vertex 74.179 141.855 4
      vertex 72.4047 140.625 0
    endloop
  endfacet
  facet normal 0.569723 -0.821837 0
    outer loop
      vertex 72.4047 140.625 4
      vertex 72.4047 140.625 0
      vertex 74.179 141.855 4
    endloop
  endfacet
  facet normal 0.362965 -0.931803 0
    outer loop
      vertex 76.1275 142.614 0
      vertex 76.1275 142.614 4
      vertex 74.179 141.855 0
    endloop
  endfacet
  facet normal 0.362965 -0.931803 0
    outer loop
      vertex 74.179 141.855 4
      vertex 74.179 141.855 0
      vertex 76.1275 142.614 4
    endloop
  endfacet
  facet normal 0.125143 -0.992139 0
    outer loop
      vertex 78.165 142.871 0
      vertex 78.165 142.871 4
      vertex 76.1275 142.614 0
    endloop
  endfacet
  facet normal 0.125143 -0.992139 0
    outer loop
      vertex 76.1275 142.614 4
      vertex 76.1275 142.614 0
      vertex 78.165 142.871 4
    endloop
  endfacet
  facet normal -0.125137 -0.992139 0
    outer loop
      vertex 80.2026 142.614 0
      vertex 80.2026 142.614 4
      vertex 78.165 142.871 0
    endloop
  endfacet
  facet normal -0.125137 -0.992139 -0
    outer loop
      vertex 78.165 142.871 4
      vertex 78.165 142.871 0
      vertex 80.2026 142.614 4
    endloop
  endfacet
  facet normal -0.362982 -0.931796 0
    outer loop
      vertex 82.151 141.855 0
      vertex 82.151 141.855 4
      vertex 80.2026 142.614 0
    endloop
  endfacet
  facet normal -0.362982 -0.931796 -0
    outer loop
      vertex 80.2026 142.614 4
      vertex 80.2026 142.614 0
      vertex 82.151 141.855 4
    endloop
  endfacet
  facet normal -0.569723 -0.821837 0
    outer loop
      vertex 83.9253 140.625 0
      vertex 83.9253 140.625 4
      vertex 82.151 141.855 0
    endloop
  endfacet
  facet normal -0.569723 -0.821837 -0
    outer loop
      vertex 82.151 141.855 4
      vertex 82.151 141.855 0
      vertex 83.9253 140.625 4
    endloop
  endfacet
  facet normal -0.733905 -0.679252 0
    outer loop
      vertex 85.4478 138.98 0
      vertex 85.4478 138.98 4
      vertex 83.9253 140.625 0
    endloop
  endfacet
  facet normal -0.733905 -0.679252 -0
    outer loop
      vertex 83.9253 140.625 4
      vertex 83.9253 140.625 0
      vertex 85.4478 138.98 4
    endloop
  endfacet
  facet normal -0.855418 -0.517939 0
    outer loop
      vertex 86.6521 136.991 0
      vertex 86.6521 136.991 4
      vertex 85.4478 138.98 0
    endloop
  endfacet
  facet normal -0.855418 -0.517939 -0
    outer loop
      vertex 85.4478 138.98 4
      vertex 85.4478 138.98 0
      vertex 86.6521 136.991 4
    endloop
  endfacet
  facet normal -0.937552 -0.347846 0
    outer loop
      vertex 87.4854 134.745 0
      vertex 87.4854 134.745 4
      vertex 86.6521 136.991 0
    endloop
  endfacet
  facet normal -0.937552 -0.347846 -0
    outer loop
      vertex 86.6521 136.991 4
      vertex 86.6521 136.991 0
      vertex 87.4854 134.745 4
    endloop
  endfacet
  facet normal -0.984667 -0.174447 0
    outer loop
      vertex 87.9113 132.341 0
      vertex 87.9113 132.341 4
      vertex 87.4854 134.745 0
    endloop
  endfacet
  facet normal -0.984667 -0.174447 -0
    outer loop
      vertex 87.4854 134.745 4
      vertex 87.4854 134.745 0
      vertex 87.9113 132.341 4
    endloop
  endfacet
  facet normal -1 0 0
    outer loop
      vertex 87.9113 129.882 0
      vertex 87.9113 129.882 4
      vertex 87.9113 132.341 0
    endloop
  endfacet
  facet normal -1 -0 -0
    outer loop
      vertex 87.9113 132.341 4
      vertex 87.9113 132.341 0
      vertex 87.9113 129.882 4
    endloop
  endfacet
  facet normal -0.984679 0.174376 0
    outer loop
      vertex 87.4854 127.477 0
      vertex 87.4854 127.477 4
      vertex 87.9113 129.882 0
    endloop
  endfacet
  facet normal -0.984679 0.174376 0
    outer loop
      vertex 87.9113 129.882 4
      vertex 87.9113 129.882 0
      vertex 87.4854 127.477 4
    endloop
  endfacet
  facet normal -0.937552 0.347846 0
    outer loop
      vertex 86.6521 125.231 0
      vertex 86.6521 125.231 4
      vertex 87.4854 127.477 0
    endloop
  endfacet
  facet normal -0.937552 0.347846 0
    outer loop
      vertex 87.4854 127.477 4
      vertex 87.4854 127.477 0
      vertex 86.6521 125.231 4
    endloop
  endfacet
  facet normal -0.855418 0.517939 0
    outer loop
      vertex 85.4478 123.242 0
      vertex 85.4478 123.242 4
      vertex 86.6521 125.231 0
    endloop
  endfacet
  facet normal -0.855418 0.517939 0
    outer loop
      vertex 86.6521 125.231 4
      vertex 86.6521 125.231 0
      vertex 85.4478 123.242 4
    endloop
  endfacet
  facet normal -0.733905 0.679252 0
    outer loop
      vertex 83.9253 121.597 0
      vertex 83.9253 121.597 4
      vertex 85.4478 123.242 0
    endloop
  endfacet
  facet normal -0.733905 0.679252 0
    outer loop
      vertex 85.4478 123.242 4
      vertex 85.4478 123.242 0
      vertex 83.9253 121.597 4
    endloop
  endfacet
endsolid OpenSCAD_Model
